<mxfile host="65bd71144e">
    <diagram name="Page-1" id="64c3da0e-402f-94eb-ee01-a36477274f13">
        <mxGraphModel dx="2351" dy="659" grid="1" gridSize="10" guides="1" tooltips="1" connect="1" arrows="1" fold="1" page="1" pageScale="1" pageWidth="1169" pageHeight="826" background="none" math="0" shadow="0">
            <root>
                <mxCell id="0"/>
                <mxCell id="1" parent="0"/>
                <mxCell id="2" value="MAIN PROJECT(밥줘)" style="whiteSpace=wrap;rounded=1;shadow=1;fillColor=#10739E;strokeColor=none;fontColor=#FFFFFF;fontStyle=1;fontSize=24" parent="1" vertex="1">
                    <mxGeometry x="1010" y="10" width="340" height="60" as="geometry"/>
                </mxCell>
                <mxCell id="3" value="계획" style="whiteSpace=wrap;rounded=1;fillColor=#F2931E;strokeColor=none;shadow=1;fontColor=#FFFFFF;fontStyle=1;fontSize=14" parent="1" vertex="1">
                    <mxGeometry x="-930" y="129.9999999999998" width="140" height="60" as="geometry"/>
                </mxCell>
                <mxCell id="4" value="요구분석" style="whiteSpace=wrap;rounded=1;fillColor=#F2931E;strokeColor=none;shadow=1;fontColor=#FFFFFF;fontStyle=1;fontSize=14" parent="1" vertex="1">
                    <mxGeometry x="-610" y="129.9999999999998" width="140" height="60" as="geometry"/>
                </mxCell>
                <mxCell id="5" value="유지보수" style="whiteSpace=wrap;rounded=1;fillColor=#F2931E;strokeColor=none;shadow=1;fontColor=#FFFFFF;fontStyle=1;fontSize=14" parent="1" vertex="1">
                    <mxGeometry x="2790" y="129.9999999999998" width="140" height="60" as="geometry"/>
                </mxCell>
                <mxCell id="6" value="설계" style="whiteSpace=wrap;rounded=1;fillColor=#F2931E;strokeColor=none;shadow=1;fontColor=#FFFFFF;fontStyle=1;fontSize=14" parent="1" vertex="1">
                    <mxGeometry x="100" y="129.9999999999998" width="140" height="60" as="geometry"/>
                </mxCell>
                <mxCell id="7" value="구현" style="whiteSpace=wrap;rounded=1;fillColor=#F2931E;strokeColor=none;shadow=1;fontColor=#FFFFFF;fontStyle=1;fontSize=14" parent="1" vertex="1">
                    <mxGeometry x="1240" y="129.9999999999998" width="140" height="60" as="geometry"/>
                </mxCell>
                <mxCell id="8" value="테스트" style="whiteSpace=wrap;rounded=1;fillColor=#F2931E;strokeColor=none;shadow=1;fontColor=#FFFFFF;fontStyle=1;fontSize=14" parent="1" vertex="1">
                    <mxGeometry x="2060" y="129.9999999999998" width="140" height="60" as="geometry"/>
                </mxCell>
                <mxCell id="10" value="주제선정" style="whiteSpace=wrap;rounded=1;fillColor=#12AAB5;strokeColor=none;shadow=1;fontColor=#FFFFFF;" parent="1" vertex="1">
                    <mxGeometry x="-1000" y="260.0000000000001" width="120" height="60" as="geometry"/>
                </mxCell>
                <mxCell id="23" value="타당성 체크" style="whiteSpace=wrap;rounded=1;fillColor=#999999;strokeColor=none;shadow=1;fontColor=#FFFFFF;fontStyle=0" parent="1" vertex="1">
                    <mxGeometry x="-1000" y="360.0000000000001" width="120" height="60" as="geometry"/>
                </mxCell>
                <mxCell id="24" value="기대 사항 체크" style="whiteSpace=wrap;rounded=1;fillColor=#999999;strokeColor=none;shadow=1;fontColor=#FFFFFF;fontStyle=0" parent="1" vertex="1">
                    <mxGeometry x="-1000" y="440.0000000000001" width="120" height="60" as="geometry"/>
                </mxCell>
                <mxCell id="25" value="발전 가능성 체크" style="whiteSpace=wrap;rounded=1;fillColor=#999999;strokeColor=none;shadow=1;fontColor=#FFFFFF;fontStyle=0" parent="1" vertex="1">
                    <mxGeometry x="-1000" y="520.0000000000001" width="120" height="60" as="geometry"/>
                </mxCell>
                <mxCell id="26" value="구현 가능성 체크" style="whiteSpace=wrap;rounded=1;fillColor=#999999;strokeColor=none;shadow=1;fontColor=#FFFFFF;fontStyle=0" parent="1" vertex="1">
                    <mxGeometry x="-999.9999999999998" y="600.0000000000001" width="120" height="60" as="geometry"/>
                </mxCell>
                <mxCell id="27" value="그게 돈이 되나요?" style="whiteSpace=wrap;rounded=1;fillColor=#999999;strokeColor=none;shadow=1;fontColor=#FFFFFF;fontStyle=0" parent="1" vertex="1">
                    <mxGeometry x="-999.9999999999995" y="680.0000000000001" width="120" height="60" as="geometry"/>
                </mxCell>
                <mxCell id="43" value="시나리오 분석" style="whiteSpace=wrap;rounded=1;fillColor=#12AAB5;strokeColor=none;shadow=1;fontColor=#FFFFFF;" parent="1" vertex="1">
                    <mxGeometry x="-680.0000000000002" y="260.0000000000001" width="120" height="60" as="geometry"/>
                </mxCell>
                <mxCell id="44" value="SRS 작성" style="whiteSpace=wrap;rounded=1;fillColor=#12AAB5;strokeColor=none;shadow=1;fontColor=#FFFFFF;" parent="1" vertex="1">
                    <mxGeometry x="-510.0000000000002" y="260.0000000000001" width="120" height="60" as="geometry"/>
                </mxCell>
                <mxCell id="45" value="사용자 시나리오" style="whiteSpace=wrap;rounded=1;fillColor=#999999;strokeColor=none;shadow=1;fontColor=#FFFFFF;fontStyle=0" parent="1" vertex="1">
                    <mxGeometry x="-680.0000000000002" y="360.0000000000001" width="120" height="60" as="geometry"/>
                </mxCell>
                <mxCell id="46" value="관리자 시나리오" style="whiteSpace=wrap;rounded=1;fillColor=#999999;strokeColor=none;shadow=1;fontColor=#FFFFFF;fontStyle=0" parent="1" vertex="1">
                    <mxGeometry x="-680.0000000000001" y="440.0000000000001" width="120" height="60" as="geometry"/>
                </mxCell>
                <mxCell id="50" value="소개" style="whiteSpace=wrap;rounded=1;fillColor=#999999;strokeColor=none;shadow=1;fontColor=#FFFFFF;fontStyle=0" parent="1" vertex="1">
                    <mxGeometry x="-510.0000000000007" y="360.0000000000001" width="120" height="60" as="geometry"/>
                </mxCell>
                <mxCell id="51" value="전체 설명" style="whiteSpace=wrap;rounded=1;fillColor=#999999;strokeColor=none;shadow=1;fontColor=#FFFFFF;fontStyle=0" parent="1" vertex="1">
                    <mxGeometry x="-510.00000000000045" y="440.0000000000001" width="120" height="60" as="geometry"/>
                </mxCell>
                <mxCell id="52" value="다이어그램" style="whiteSpace=wrap;rounded=1;fillColor=#999999;strokeColor=none;shadow=1;fontColor=#FFFFFF;fontStyle=0" parent="1" vertex="1">
                    <mxGeometry x="-510.00000000000045" y="520.0000000000001" width="120" height="60" as="geometry"/>
                </mxCell>
                <mxCell id="53" value="시스템 특징" style="whiteSpace=wrap;rounded=1;fillColor=#999999;strokeColor=none;shadow=1;fontColor=#FFFFFF;fontStyle=0" parent="1" vertex="1">
                    <mxGeometry x="-510.00000000000034" y="600.0000000000001" width="120" height="60" as="geometry"/>
                </mxCell>
                <mxCell id="54" value="외부 인터페이스&#10;요구사항" style="whiteSpace=wrap;rounded=1;fillColor=#999999;strokeColor=none;shadow=1;fontColor=#FFFFFF;fontStyle=0" parent="1" vertex="1">
                    <mxGeometry x="-510.0000000000002" y="680.0000000000001" width="120" height="60" as="geometry"/>
                </mxCell>
                <mxCell id="103" value="" style="edgeStyle=elbowEdgeStyle;elbow=vertical;rounded=0;fontColor=#000000;endArrow=none;endFill=0;strokeWidth=8;strokeColor=#23445D;" parent="1" source="3" target="10" edge="1">
                    <mxGeometry width="100" height="100" relative="1" as="geometry">
                        <mxPoint x="-1150" y="250" as="sourcePoint"/>
                        <mxPoint x="-1050" y="150" as="targetPoint"/>
                    </mxGeometry>
                </mxCell>
                <mxCell id="105" value="" style="edgeStyle=elbowEdgeStyle;elbow=horizontal;rounded=0;fontColor=#000000;endArrow=none;endFill=0;strokeWidth=8;strokeColor=#23445D;" parent="1" source="10" target="23" edge="1">
                    <mxGeometry width="100" height="100" relative="1" as="geometry">
                        <mxPoint x="-1060" y="440" as="sourcePoint"/>
                        <mxPoint x="-960" y="340" as="targetPoint"/>
                        <Array as="points">
                            <mxPoint x="-1020" y="340"/>
                        </Array>
                    </mxGeometry>
                </mxCell>
                <mxCell id="106" value="" style="edgeStyle=elbowEdgeStyle;elbow=horizontal;rounded=0;fontColor=#000000;endArrow=none;endFill=0;strokeWidth=8;strokeColor=#23445D;" parent="1" source="10" target="24" edge="1">
                    <mxGeometry width="100" height="100" relative="1" as="geometry">
                        <mxPoint x="-990" y="300" as="sourcePoint"/>
                        <mxPoint x="-990" y="400" as="targetPoint"/>
                        <Array as="points">
                            <mxPoint x="-1020" y="360"/>
                        </Array>
                    </mxGeometry>
                </mxCell>
                <mxCell id="107" value="" style="edgeStyle=elbowEdgeStyle;elbow=horizontal;rounded=0;fontColor=#000000;endArrow=none;endFill=0;strokeWidth=8;strokeColor=#23445D;" parent="1" source="10" target="27" edge="1">
                    <mxGeometry width="100" height="100" relative="1" as="geometry">
                        <mxPoint x="-990" y="300" as="sourcePoint"/>
                        <mxPoint x="-990" y="400" as="targetPoint"/>
                        <Array as="points">
                            <mxPoint x="-1020" y="500"/>
                        </Array>
                    </mxGeometry>
                </mxCell>
                <mxCell id="109" value="" style="edgeStyle=elbowEdgeStyle;elbow=horizontal;rounded=0;fontColor=#000000;endArrow=none;endFill=0;strokeWidth=8;strokeColor=#23445D;" parent="1" source="10" target="26" edge="1">
                    <mxGeometry width="100" height="100" relative="1" as="geometry">
                        <mxPoint x="-970" y="320" as="sourcePoint"/>
                        <mxPoint x="-970" y="420" as="targetPoint"/>
                        <Array as="points">
                            <mxPoint x="-1020" y="370"/>
                        </Array>
                    </mxGeometry>
                </mxCell>
                <mxCell id="110" value="" style="edgeStyle=elbowEdgeStyle;elbow=horizontal;rounded=0;fontColor=#000000;endArrow=none;endFill=0;strokeWidth=8;strokeColor=#23445D;" parent="1" source="10" target="25" edge="1">
                    <mxGeometry width="100" height="100" relative="1" as="geometry">
                        <mxPoint x="-960" y="330" as="sourcePoint"/>
                        <mxPoint x="-960" y="430" as="targetPoint"/>
                        <Array as="points">
                            <mxPoint x="-1020" y="390"/>
                        </Array>
                    </mxGeometry>
                </mxCell>
                <mxCell id="116" value="" style="edgeStyle=elbowEdgeStyle;elbow=vertical;rounded=0;fontColor=#000000;endArrow=none;endFill=0;strokeWidth=8;strokeColor=#23445D;" parent="1" source="4" target="43" edge="1">
                    <mxGeometry width="100" height="100" relative="1" as="geometry">
                        <mxPoint x="-880" y="199.99999999999977" as="sourcePoint"/>
                        <mxPoint x="-980" y="270" as="targetPoint"/>
                    </mxGeometry>
                </mxCell>
                <mxCell id="117" value="" style="edgeStyle=elbowEdgeStyle;elbow=vertical;rounded=0;fontColor=#000000;endArrow=none;endFill=0;strokeWidth=8;strokeColor=#23445D;" parent="1" source="4" target="44" edge="1">
                    <mxGeometry width="100" height="100" relative="1" as="geometry">
                        <mxPoint x="-880" y="199.99999999999977" as="sourcePoint"/>
                        <mxPoint x="-780" y="270" as="targetPoint"/>
                    </mxGeometry>
                </mxCell>
                <mxCell id="118" value="" style="edgeStyle=elbowEdgeStyle;elbow=horizontal;rounded=0;fontColor=#000000;endArrow=none;endFill=0;strokeWidth=8;strokeColor=#23445D;" parent="1" source="43" target="45" edge="1">
                    <mxGeometry width="100" height="100" relative="1" as="geometry">
                        <mxPoint x="-700" y="290.00000000000045" as="sourcePoint"/>
                        <mxPoint x="-690.0000000000005" y="390" as="targetPoint"/>
                        <Array as="points">
                            <mxPoint x="-700" y="340"/>
                        </Array>
                    </mxGeometry>
                </mxCell>
                <mxCell id="119" value="" style="edgeStyle=elbowEdgeStyle;elbow=horizontal;rounded=0;fontColor=#000000;endArrow=none;endFill=0;strokeWidth=8;strokeColor=#23445D;" parent="1" source="43" target="46" edge="1">
                    <mxGeometry width="100" height="100" relative="1" as="geometry">
                        <mxPoint x="-690" y="290" as="sourcePoint"/>
                        <mxPoint x="-690.0000000000002" y="470" as="targetPoint"/>
                        <Array as="points">
                            <mxPoint x="-700" y="380"/>
                        </Array>
                    </mxGeometry>
                </mxCell>
                <mxCell id="123" value="" style="edgeStyle=elbowEdgeStyle;elbow=horizontal;rounded=0;fontColor=#000000;endArrow=none;endFill=0;strokeWidth=8;strokeColor=#23445D;" parent="1" source="44" target="50" edge="1">
                    <mxGeometry width="100" height="100" relative="1" as="geometry">
                        <mxPoint x="-540" y="290.00000000000045" as="sourcePoint"/>
                        <mxPoint x="-530.0000000000005" y="390" as="targetPoint"/>
                        <Array as="points">
                            <mxPoint x="-530" y="340"/>
                        </Array>
                    </mxGeometry>
                </mxCell>
                <mxCell id="124" value="" style="edgeStyle=elbowEdgeStyle;elbow=horizontal;rounded=0;fontColor=#000000;endArrow=none;endFill=0;strokeWidth=8;strokeColor=#23445D;" parent="1" source="44" target="51" edge="1">
                    <mxGeometry width="100" height="100" relative="1" as="geometry">
                        <mxPoint x="-530" y="290" as="sourcePoint"/>
                        <mxPoint x="-530.0000000000002" y="470" as="targetPoint"/>
                        <Array as="points">
                            <mxPoint x="-530" y="380"/>
                        </Array>
                    </mxGeometry>
                </mxCell>
                <mxCell id="125" value="" style="edgeStyle=elbowEdgeStyle;elbow=horizontal;rounded=0;fontColor=#000000;endArrow=none;endFill=0;strokeWidth=8;strokeColor=#23445D;" parent="1" source="44" target="54" edge="1">
                    <mxGeometry width="100" height="100" relative="1" as="geometry">
                        <mxPoint x="-530" y="290" as="sourcePoint"/>
                        <mxPoint x="-530" y="710" as="targetPoint"/>
                        <Array as="points">
                            <mxPoint x="-530" y="500"/>
                        </Array>
                    </mxGeometry>
                </mxCell>
                <mxCell id="126" value="" style="edgeStyle=elbowEdgeStyle;elbow=horizontal;rounded=0;fontColor=#000000;endArrow=none;endFill=0;strokeWidth=8;strokeColor=#23445D;" parent="1" source="44" target="53" edge="1">
                    <mxGeometry width="100" height="100" relative="1" as="geometry">
                        <mxPoint x="-530" y="290" as="sourcePoint"/>
                        <mxPoint x="-530" y="630" as="targetPoint"/>
                        <Array as="points">
                            <mxPoint x="-530" y="460"/>
                        </Array>
                    </mxGeometry>
                </mxCell>
                <mxCell id="127" value="" style="edgeStyle=elbowEdgeStyle;elbow=horizontal;rounded=0;fontColor=#000000;endArrow=none;endFill=0;strokeWidth=8;strokeColor=#23445D;" parent="1" source="44" target="52" edge="1">
                    <mxGeometry width="100" height="100" relative="1" as="geometry">
                        <mxPoint x="-530" y="290" as="sourcePoint"/>
                        <mxPoint x="-530.0000000000002" y="550" as="targetPoint"/>
                        <Array as="points">
                            <mxPoint x="-530" y="430"/>
                        </Array>
                    </mxGeometry>
                </mxCell>
                <mxCell id="133" value="출석 체크" style="whiteSpace=wrap;rounded=1;fillColor=#12AAB5;strokeColor=none;shadow=1;fontColor=#FFFFFF;" parent="1" vertex="1">
                    <mxGeometry x="-150.00000000000023" y="260.0000000000001" width="120" height="60" as="geometry"/>
                </mxCell>
                <mxCell id="134" value="로그인 시스템" style="whiteSpace=wrap;rounded=1;fillColor=#12AAB5;strokeColor=none;shadow=1;fontColor=#FFFFFF;" parent="1" vertex="1">
                    <mxGeometry x="19.999999999999773" y="260.0000000000001" width="120" height="60" as="geometry"/>
                </mxCell>
                <mxCell id="135" value="날짜 체크" style="whiteSpace=wrap;rounded=1;fillColor=#999999;strokeColor=none;shadow=1;fontColor=#FFFFFF;fontStyle=0" parent="1" vertex="1">
                    <mxGeometry x="-150.00000000000023" y="360.0000000000001" width="120" height="60" as="geometry"/>
                </mxCell>
                <mxCell id="136" value="접속 체크" style="whiteSpace=wrap;rounded=1;fillColor=#999999;strokeColor=none;shadow=1;fontColor=#FFFFFF;fontStyle=0" parent="1" vertex="1">
                    <mxGeometry x="-150.0000000000001" y="440.0000000000001" width="120" height="60" as="geometry"/>
                </mxCell>
                <mxCell id="137" value="리워드" style="whiteSpace=wrap;rounded=1;fillColor=#999999;strokeColor=none;shadow=1;fontColor=#FFFFFF;fontStyle=0" parent="1" vertex="1">
                    <mxGeometry x="-150.00000000000023" y="520.0000000000001" width="120" height="60" as="geometry"/>
                </mxCell>
                <mxCell id="140" value="접속 체크" style="whiteSpace=wrap;rounded=1;fillColor=#999999;strokeColor=none;shadow=1;fontColor=#FFFFFF;fontStyle=0" parent="1" vertex="1">
                    <mxGeometry x="19.999999999999318" y="360.0000000000001" width="120" height="60" as="geometry"/>
                </mxCell>
                <mxCell id="141" value="서버 연결" style="whiteSpace=wrap;rounded=1;fillColor=#999999;strokeColor=none;shadow=1;fontColor=#FFFFFF;fontStyle=0" parent="1" vertex="1">
                    <mxGeometry x="19.999999999999545" y="440.0000000000001" width="120" height="60" as="geometry"/>
                </mxCell>
                <mxCell id="145" value="" style="edgeStyle=elbowEdgeStyle;elbow=horizontal;rounded=0;fontColor=#000000;endArrow=none;endFill=0;strokeWidth=8;strokeColor=#23445D;" parent="1" source="133" target="135" edge="1">
                    <mxGeometry width="100" height="100" relative="1" as="geometry">
                        <mxPoint x="-170" y="290.00000000000045" as="sourcePoint"/>
                        <mxPoint x="-160.00000000000045" y="390" as="targetPoint"/>
                        <Array as="points">
                            <mxPoint x="-170" y="340"/>
                        </Array>
                    </mxGeometry>
                </mxCell>
                <mxCell id="146" value="" style="edgeStyle=elbowEdgeStyle;elbow=horizontal;rounded=0;fontColor=#000000;endArrow=none;endFill=0;strokeWidth=8;strokeColor=#23445D;" parent="1" source="133" target="136" edge="1">
                    <mxGeometry width="100" height="100" relative="1" as="geometry">
                        <mxPoint x="-160" y="290" as="sourcePoint"/>
                        <mxPoint x="-160.00000000000023" y="470" as="targetPoint"/>
                        <Array as="points">
                            <mxPoint x="-170" y="380"/>
                        </Array>
                    </mxGeometry>
                </mxCell>
                <mxCell id="149" value="" style="edgeStyle=elbowEdgeStyle;elbow=horizontal;rounded=0;fontColor=#000000;endArrow=none;endFill=0;strokeWidth=8;strokeColor=#23445D;" parent="1" source="133" target="137" edge="1">
                    <mxGeometry width="100" height="100" relative="1" as="geometry">
                        <mxPoint x="-160" y="290" as="sourcePoint"/>
                        <mxPoint x="-160.00000000000023" y="550" as="targetPoint"/>
                        <Array as="points">
                            <mxPoint x="-170" y="430"/>
                        </Array>
                    </mxGeometry>
                </mxCell>
                <mxCell id="150" value="" style="edgeStyle=elbowEdgeStyle;elbow=horizontal;rounded=0;fontColor=#000000;endArrow=none;endFill=0;strokeWidth=8;strokeColor=#23445D;" parent="1" source="134" target="140" edge="1">
                    <mxGeometry width="100" height="100" relative="1" as="geometry">
                        <mxPoint x="-10" y="290.00000000000045" as="sourcePoint"/>
                        <mxPoint x="-4.547473508864641e-13" y="390" as="targetPoint"/>
                        <Array as="points">
                            <mxPoint y="340"/>
                        </Array>
                    </mxGeometry>
                </mxCell>
                <mxCell id="151" value="" style="edgeStyle=elbowEdgeStyle;elbow=horizontal;rounded=0;fontColor=#000000;endArrow=none;endFill=0;strokeWidth=8;strokeColor=#23445D;" parent="1" source="134" target="141" edge="1">
                    <mxGeometry width="100" height="100" relative="1" as="geometry">
                        <mxPoint y="290" as="sourcePoint"/>
                        <mxPoint x="-2.2737367544323206e-13" y="470" as="targetPoint"/>
                        <Array as="points">
                            <mxPoint y="380"/>
                        </Array>
                    </mxGeometry>
                </mxCell>
                <mxCell id="177" value="UI 테스트" style="whiteSpace=wrap;rounded=1;fillColor=#12AAB5;strokeColor=none;shadow=1;fontColor=#FFFFFF;" parent="1" vertex="1">
                    <mxGeometry x="1899.9999999999998" y="259.9999999999999" width="120" height="60" as="geometry"/>
                </mxCell>
                <mxCell id="178" value="일기 테스트" style="whiteSpace=wrap;rounded=1;fillColor=#12AAB5;strokeColor=none;shadow=1;fontColor=#FFFFFF;" parent="1" vertex="1">
                    <mxGeometry x="2070" y="259.9999999999999" width="120" height="60" as="geometry"/>
                </mxCell>
                <mxCell id="179" value="모션 체크" style="whiteSpace=wrap;rounded=1;fillColor=#999999;strokeColor=none;shadow=1;fontColor=#FFFFFF;fontStyle=0" parent="1" vertex="1">
                    <mxGeometry x="1899.9999999999998" y="359.9999999999999" width="120" height="60" as="geometry"/>
                </mxCell>
                <mxCell id="180" value="버튼 체크" style="whiteSpace=wrap;rounded=1;fillColor=#999999;strokeColor=none;shadow=1;fontColor=#FFFFFF;fontStyle=0" parent="1" vertex="1">
                    <mxGeometry x="1900" y="439.9999999999999" width="120" height="60" as="geometry"/>
                </mxCell>
                <mxCell id="184" value="저장 시스템 체크" style="whiteSpace=wrap;rounded=1;fillColor=#999999;strokeColor=none;shadow=1;fontColor=#FFFFFF;fontStyle=0" parent="1" vertex="1">
                    <mxGeometry x="2069.999999999999" y="359.9999999999999" width="120" height="60" as="geometry"/>
                </mxCell>
                <mxCell id="189" value="" style="edgeStyle=elbowEdgeStyle;elbow=horizontal;rounded=0;fontColor=#000000;endArrow=none;endFill=0;strokeWidth=8;strokeColor=#23445D;" parent="1" source="177" target="179" edge="1">
                    <mxGeometry width="100" height="100" relative="1" as="geometry">
                        <mxPoint x="1880" y="290.0000000000002" as="sourcePoint"/>
                        <mxPoint x="1889.9999999999995" y="389.9999999999998" as="targetPoint"/>
                        <Array as="points">
                            <mxPoint x="1880" y="339.9999999999998"/>
                        </Array>
                    </mxGeometry>
                </mxCell>
                <mxCell id="190" value="" style="edgeStyle=elbowEdgeStyle;elbow=horizontal;rounded=0;fontColor=#000000;endArrow=none;endFill=0;strokeWidth=8;strokeColor=#23445D;" parent="1" source="177" target="180" edge="1">
                    <mxGeometry width="100" height="100" relative="1" as="geometry">
                        <mxPoint x="1890" y="289.9999999999998" as="sourcePoint"/>
                        <mxPoint x="1889.9999999999998" y="469.9999999999998" as="targetPoint"/>
                        <Array as="points">
                            <mxPoint x="1880" y="379.9999999999998"/>
                        </Array>
                    </mxGeometry>
                </mxCell>
                <mxCell id="194" value="" style="edgeStyle=elbowEdgeStyle;elbow=horizontal;rounded=0;fontColor=#000000;endArrow=none;endFill=0;strokeWidth=8;strokeColor=#23445D;" parent="1" source="178" target="184" edge="1">
                    <mxGeometry width="100" height="100" relative="1" as="geometry">
                        <mxPoint x="2040" y="290.0000000000002" as="sourcePoint"/>
                        <mxPoint x="2049.9999999999995" y="389.9999999999998" as="targetPoint"/>
                        <Array as="points">
                            <mxPoint x="2050" y="339.9999999999998"/>
                        </Array>
                    </mxGeometry>
                </mxCell>
                <mxCell id="199" value="상점 시스템" style="whiteSpace=wrap;rounded=1;fillColor=#12AAB5;strokeColor=none;shadow=1;fontColor=#FFFFFF;" parent="1" vertex="1">
                    <mxGeometry x="2800" y="259.9999999999997" width="120" height="60" as="geometry"/>
                </mxCell>
                <mxCell id="200" value="시스템 메세지" style="whiteSpace=wrap;rounded=1;fillColor=#12AAB5;strokeColor=none;shadow=1;fontColor=#FFFFFF;" parent="1" vertex="1">
                    <mxGeometry x="2970" y="259.9999999999997" width="120" height="60" as="geometry"/>
                </mxCell>
                <mxCell id="201" value="WORK&#10;PACKAGE 1" style="whiteSpace=wrap;rounded=1;fillColor=#999999;strokeColor=none;shadow=1;fontColor=#FFFFFF;fontStyle=0" parent="1" vertex="1">
                    <mxGeometry x="2800" y="359.9999999999997" width="120" height="60" as="geometry"/>
                </mxCell>
                <mxCell id="202" value="WORK&#10;PACKAGE 2" style="whiteSpace=wrap;rounded=1;fillColor=#999999;strokeColor=none;shadow=1;fontColor=#FFFFFF;fontStyle=0" parent="1" vertex="1">
                    <mxGeometry x="2800" y="439.9999999999997" width="120" height="60" as="geometry"/>
                </mxCell>
                <mxCell id="203" value="WORK&#10;PACKAGE 3" style="whiteSpace=wrap;rounded=1;fillColor=#999999;strokeColor=none;shadow=1;fontColor=#FFFFFF;fontStyle=0" parent="1" vertex="1">
                    <mxGeometry x="2800" y="519.9999999999997" width="120" height="60" as="geometry"/>
                </mxCell>
                <mxCell id="204" value="WORK&#10;PACKAGE 4" style="whiteSpace=wrap;rounded=1;fillColor=#999999;strokeColor=none;shadow=1;fontColor=#FFFFFF;fontStyle=0" parent="1" vertex="1">
                    <mxGeometry x="2800" y="599.9999999999997" width="120" height="60" as="geometry"/>
                </mxCell>
                <mxCell id="205" value="WORK&#10;PACKAGE 5" style="whiteSpace=wrap;rounded=1;fillColor=#999999;strokeColor=none;shadow=1;fontColor=#FFFFFF;fontStyle=0" parent="1" vertex="1">
                    <mxGeometry x="2800" y="679.9999999999997" width="120" height="60" as="geometry"/>
                </mxCell>
                <mxCell id="206" value="WORK&#10;PACKAGE 1" style="whiteSpace=wrap;rounded=1;fillColor=#999999;strokeColor=none;shadow=1;fontColor=#FFFFFF;fontStyle=0" parent="1" vertex="1">
                    <mxGeometry x="2969.999999999999" y="359.9999999999997" width="120" height="60" as="geometry"/>
                </mxCell>
                <mxCell id="207" value="WORK&#10;PACKAGE 2" style="whiteSpace=wrap;rounded=1;fillColor=#999999;strokeColor=none;shadow=1;fontColor=#FFFFFF;fontStyle=0" parent="1" vertex="1">
                    <mxGeometry x="2969.9999999999995" y="439.9999999999997" width="120" height="60" as="geometry"/>
                </mxCell>
                <mxCell id="208" value="WORK&#10;PACKAGE 3" style="whiteSpace=wrap;rounded=1;fillColor=#999999;strokeColor=none;shadow=1;fontColor=#FFFFFF;fontStyle=0" parent="1" vertex="1">
                    <mxGeometry x="2969.9999999999995" y="519.9999999999997" width="120" height="60" as="geometry"/>
                </mxCell>
                <mxCell id="209" value="WORK&#10;PACKAGE 4" style="whiteSpace=wrap;rounded=1;fillColor=#999999;strokeColor=none;shadow=1;fontColor=#FFFFFF;fontStyle=0" parent="1" vertex="1">
                    <mxGeometry x="2969.9999999999995" y="599.9999999999997" width="120" height="60" as="geometry"/>
                </mxCell>
                <mxCell id="210" value="WORK&#10;PACKAGE 5" style="whiteSpace=wrap;rounded=1;fillColor=#999999;strokeColor=none;shadow=1;fontColor=#FFFFFF;fontStyle=0" parent="1" vertex="1">
                    <mxGeometry x="2970" y="679.9999999999997" width="120" height="60" as="geometry"/>
                </mxCell>
                <mxCell id="211" value="" style="edgeStyle=elbowEdgeStyle;elbow=horizontal;rounded=0;fontColor=#000000;endArrow=none;endFill=0;strokeWidth=8;strokeColor=#23445D;" parent="1" source="199" target="201" edge="1">
                    <mxGeometry width="100" height="100" relative="1" as="geometry">
                        <mxPoint x="2780" y="290.00000000000006" as="sourcePoint"/>
                        <mxPoint x="2789.9999999999995" y="389.9999999999996" as="targetPoint"/>
                        <Array as="points">
                            <mxPoint x="2780" y="339.9999999999996"/>
                        </Array>
                    </mxGeometry>
                </mxCell>
                <mxCell id="212" value="" style="edgeStyle=elbowEdgeStyle;elbow=horizontal;rounded=0;fontColor=#000000;endArrow=none;endFill=0;strokeWidth=8;strokeColor=#23445D;" parent="1" source="199" target="202" edge="1">
                    <mxGeometry width="100" height="100" relative="1" as="geometry">
                        <mxPoint x="2790" y="289.9999999999996" as="sourcePoint"/>
                        <mxPoint x="2790" y="469.9999999999996" as="targetPoint"/>
                        <Array as="points">
                            <mxPoint x="2780" y="379.9999999999996"/>
                        </Array>
                    </mxGeometry>
                </mxCell>
                <mxCell id="213" value="" style="edgeStyle=elbowEdgeStyle;elbow=horizontal;rounded=0;fontColor=#000000;endArrow=none;endFill=0;strokeWidth=8;strokeColor=#23445D;" parent="1" source="199" target="205" edge="1">
                    <mxGeometry width="100" height="100" relative="1" as="geometry">
                        <mxPoint x="2790" y="289.9999999999996" as="sourcePoint"/>
                        <mxPoint x="2790" y="709.9999999999995" as="targetPoint"/>
                        <Array as="points">
                            <mxPoint x="2780" y="509.99999999999955"/>
                        </Array>
                    </mxGeometry>
                </mxCell>
                <mxCell id="214" value="" style="edgeStyle=elbowEdgeStyle;elbow=horizontal;rounded=0;fontColor=#000000;endArrow=none;endFill=0;strokeWidth=8;strokeColor=#23445D;" parent="1" source="199" target="204" edge="1">
                    <mxGeometry width="100" height="100" relative="1" as="geometry">
                        <mxPoint x="2790" y="289.9999999999996" as="sourcePoint"/>
                        <mxPoint x="2790" y="629.9999999999995" as="targetPoint"/>
                        <Array as="points">
                            <mxPoint x="2780" y="459.9999999999996"/>
                        </Array>
                    </mxGeometry>
                </mxCell>
                <mxCell id="215" value="" style="edgeStyle=elbowEdgeStyle;elbow=horizontal;rounded=0;fontColor=#000000;endArrow=none;endFill=0;strokeWidth=8;strokeColor=#23445D;" parent="1" source="199" target="203" edge="1">
                    <mxGeometry width="100" height="100" relative="1" as="geometry">
                        <mxPoint x="2790" y="289.9999999999996" as="sourcePoint"/>
                        <mxPoint x="2790" y="549.9999999999995" as="targetPoint"/>
                        <Array as="points">
                            <mxPoint x="2780" y="429.9999999999996"/>
                        </Array>
                    </mxGeometry>
                </mxCell>
                <mxCell id="216" value="" style="edgeStyle=elbowEdgeStyle;elbow=horizontal;rounded=0;fontColor=#000000;endArrow=none;endFill=0;strokeWidth=8;strokeColor=#23445D;" parent="1" source="200" target="206" edge="1">
                    <mxGeometry width="100" height="100" relative="1" as="geometry">
                        <mxPoint x="2940" y="290.00000000000006" as="sourcePoint"/>
                        <mxPoint x="2949.9999999999995" y="389.9999999999996" as="targetPoint"/>
                        <Array as="points">
                            <mxPoint x="2950" y="339.9999999999996"/>
                        </Array>
                    </mxGeometry>
                </mxCell>
                <mxCell id="217" value="" style="edgeStyle=elbowEdgeStyle;elbow=horizontal;rounded=0;fontColor=#000000;endArrow=none;endFill=0;strokeWidth=8;strokeColor=#23445D;" parent="1" source="200" target="207" edge="1">
                    <mxGeometry width="100" height="100" relative="1" as="geometry">
                        <mxPoint x="2950" y="289.9999999999996" as="sourcePoint"/>
                        <mxPoint x="2950" y="469.9999999999996" as="targetPoint"/>
                        <Array as="points">
                            <mxPoint x="2950" y="379.9999999999996"/>
                        </Array>
                    </mxGeometry>
                </mxCell>
                <mxCell id="218" value="" style="edgeStyle=elbowEdgeStyle;elbow=horizontal;rounded=0;fontColor=#000000;endArrow=none;endFill=0;strokeWidth=8;strokeColor=#23445D;" parent="1" source="200" target="210" edge="1">
                    <mxGeometry width="100" height="100" relative="1" as="geometry">
                        <mxPoint x="2950" y="289.9999999999996" as="sourcePoint"/>
                        <mxPoint x="2950" y="709.9999999999995" as="targetPoint"/>
                        <Array as="points">
                            <mxPoint x="2950" y="499.99999999999955"/>
                        </Array>
                    </mxGeometry>
                </mxCell>
                <mxCell id="219" value="" style="edgeStyle=elbowEdgeStyle;elbow=horizontal;rounded=0;fontColor=#000000;endArrow=none;endFill=0;strokeWidth=8;strokeColor=#23445D;" parent="1" source="200" target="209" edge="1">
                    <mxGeometry width="100" height="100" relative="1" as="geometry">
                        <mxPoint x="2950" y="289.9999999999996" as="sourcePoint"/>
                        <mxPoint x="2950" y="629.9999999999995" as="targetPoint"/>
                        <Array as="points">
                            <mxPoint x="2950" y="459.9999999999996"/>
                        </Array>
                    </mxGeometry>
                </mxCell>
                <mxCell id="220" value="" style="edgeStyle=elbowEdgeStyle;elbow=horizontal;rounded=0;fontColor=#000000;endArrow=none;endFill=0;strokeWidth=8;strokeColor=#23445D;" parent="1" source="200" target="208" edge="1">
                    <mxGeometry width="100" height="100" relative="1" as="geometry">
                        <mxPoint x="2950" y="289.9999999999996" as="sourcePoint"/>
                        <mxPoint x="2950" y="549.9999999999995" as="targetPoint"/>
                        <Array as="points">
                            <mxPoint x="2950" y="429.9999999999996"/>
                        </Array>
                    </mxGeometry>
                </mxCell>
                <mxCell id="221" value="" style="edgeStyle=elbowEdgeStyle;elbow=vertical;rounded=0;fontColor=#000000;endArrow=none;endFill=0;strokeWidth=8;strokeColor=#23445D;" parent="1" source="6" target="133" edge="1">
                    <mxGeometry width="100" height="100" relative="1" as="geometry">
                        <mxPoint x="50" y="230" as="sourcePoint"/>
                        <mxPoint x="150" y="130" as="targetPoint"/>
                    </mxGeometry>
                </mxCell>
                <mxCell id="222" value="" style="edgeStyle=elbowEdgeStyle;elbow=vertical;rounded=0;fontColor=#000000;endArrow=none;endFill=0;strokeWidth=8;strokeColor=#23445D;exitX=0.5;exitY=1;exitDx=0;exitDy=0;" parent="1" source="6" target="134" edge="1">
                    <mxGeometry width="100" height="100" relative="1" as="geometry">
                        <mxPoint x="-30" y="189.99999999999977" as="sourcePoint"/>
                        <mxPoint x="130" y="140" as="targetPoint"/>
                    </mxGeometry>
                </mxCell>
                <mxCell id="225" value="" style="edgeStyle=elbowEdgeStyle;elbow=vertical;rounded=0;fontColor=#000000;endArrow=none;endFill=0;strokeWidth=8;strokeColor=#23445D;" parent="1" source="8" target="177" edge="1">
                    <mxGeometry width="100" height="100" relative="1" as="geometry">
                        <mxPoint x="1890" y="250" as="sourcePoint"/>
                        <mxPoint x="1990" y="150" as="targetPoint"/>
                    </mxGeometry>
                </mxCell>
                <mxCell id="226" value="" style="edgeStyle=elbowEdgeStyle;elbow=vertical;rounded=0;fontColor=#000000;endArrow=none;endFill=0;strokeWidth=8;strokeColor=#23445D;" parent="1" source="8" target="178" edge="1">
                    <mxGeometry width="100" height="100" relative="1" as="geometry">
                        <mxPoint x="2120" y="250" as="sourcePoint"/>
                        <mxPoint x="2220" y="150" as="targetPoint"/>
                    </mxGeometry>
                </mxCell>
                <mxCell id="227" value="" style="edgeStyle=elbowEdgeStyle;elbow=vertical;rounded=0;fontColor=#000000;endArrow=none;endFill=0;strokeWidth=8;strokeColor=#23445D;" parent="1" source="5" target="199" edge="1">
                    <mxGeometry width="100" height="100" relative="1" as="geometry">
                        <mxPoint x="2830" y="250" as="sourcePoint"/>
                        <mxPoint x="2930" y="150" as="targetPoint"/>
                    </mxGeometry>
                </mxCell>
                <mxCell id="228" value="" style="edgeStyle=elbowEdgeStyle;elbow=vertical;rounded=0;fontColor=#000000;endArrow=none;endFill=0;strokeWidth=8;strokeColor=#23445D;" parent="1" source="5" target="200" edge="1">
                    <mxGeometry width="100" height="100" relative="1" as="geometry">
                        <mxPoint x="3090" y="250" as="sourcePoint"/>
                        <mxPoint x="3190" y="150" as="targetPoint"/>
                    </mxGeometry>
                </mxCell>
                <mxCell id="229" value="" style="edgeStyle=elbowEdgeStyle;elbow=vertical;rounded=0;fontColor=#000000;endArrow=none;endFill=0;strokeWidth=8;strokeColor=#23445D;" parent="1" source="2" target="3" edge="1">
                    <mxGeometry width="100" height="100" relative="1" as="geometry">
                        <mxPoint x="880" y="100" as="sourcePoint"/>
                        <mxPoint x="980" as="targetPoint"/>
                    </mxGeometry>
                </mxCell>
                <mxCell id="230" value="" style="edgeStyle=elbowEdgeStyle;elbow=vertical;rounded=0;fontColor=#000000;endArrow=none;endFill=0;strokeWidth=8;strokeColor=#23445D;" parent="1" source="2" target="4" edge="1">
                    <mxGeometry width="100" height="100" relative="1" as="geometry">
                        <mxPoint x="890" y="110" as="sourcePoint"/>
                        <mxPoint x="990" y="10" as="targetPoint"/>
                    </mxGeometry>
                </mxCell>
                <mxCell id="231" value="" style="edgeStyle=elbowEdgeStyle;elbow=vertical;rounded=0;fontColor=#000000;endArrow=none;endFill=0;strokeWidth=8;strokeColor=#23445D;" parent="1" source="2" target="6" edge="1">
                    <mxGeometry width="100" height="100" relative="1" as="geometry">
                        <mxPoint x="900" y="120" as="sourcePoint"/>
                        <mxPoint x="1000" y="20" as="targetPoint"/>
                    </mxGeometry>
                </mxCell>
                <mxCell id="232" value="" style="edgeStyle=elbowEdgeStyle;elbow=vertical;rounded=0;fontColor=#000000;endArrow=none;endFill=0;strokeWidth=8;strokeColor=#23445D;" parent="1" source="2" target="7" edge="1">
                    <mxGeometry width="100" height="100" relative="1" as="geometry">
                        <mxPoint x="910" y="130" as="sourcePoint"/>
                        <mxPoint x="1010" y="30" as="targetPoint"/>
                    </mxGeometry>
                </mxCell>
                <mxCell id="233" value="" style="edgeStyle=elbowEdgeStyle;elbow=vertical;rounded=0;fontColor=#000000;endArrow=none;endFill=0;strokeWidth=8;strokeColor=#23445D;" parent="1" source="2" target="8" edge="1">
                    <mxGeometry width="100" height="100" relative="1" as="geometry">
                        <mxPoint x="920" y="140" as="sourcePoint"/>
                        <mxPoint x="1020" y="40" as="targetPoint"/>
                    </mxGeometry>
                </mxCell>
                <mxCell id="234" value="" style="edgeStyle=elbowEdgeStyle;elbow=vertical;rounded=0;fontColor=#000000;endArrow=none;endFill=0;strokeWidth=8;strokeColor=#23445D;" parent="1" source="2" target="5" edge="1">
                    <mxGeometry width="100" height="100" relative="1" as="geometry">
                        <mxPoint x="930" y="150" as="sourcePoint"/>
                        <mxPoint x="1030" y="50" as="targetPoint"/>
                    </mxGeometry>
                </mxCell>
                <mxCell id="ofWiquQbu_0ARYprlp63-272" value="UI 가제작" style="whiteSpace=wrap;rounded=1;fillColor=#12AAB5;strokeColor=none;shadow=1;fontColor=#FFFFFF;" parent="1" vertex="1">
                    <mxGeometry x="-330.0000000000002" y="260.0000000000001" width="120" height="60" as="geometry"/>
                </mxCell>
                <mxCell id="ofWiquQbu_0ARYprlp63-273" value="메인 UI" style="whiteSpace=wrap;rounded=1;fillColor=#999999;strokeColor=none;shadow=1;fontColor=#FFFFFF;fontStyle=0" parent="1" vertex="1">
                    <mxGeometry x="-330.0000000000002" y="360.0000000000001" width="120" height="60" as="geometry"/>
                </mxCell>
                <mxCell id="ofWiquQbu_0ARYprlp63-274" value="일기 UI" style="whiteSpace=wrap;rounded=1;fillColor=#999999;strokeColor=none;shadow=1;fontColor=#FFFFFF;fontStyle=0" parent="1" vertex="1">
                    <mxGeometry x="-330.0000000000001" y="440.0000000000001" width="120" height="60" as="geometry"/>
                </mxCell>
                <mxCell id="ofWiquQbu_0ARYprlp63-275" value="동물 시뮬레이션 UI" style="whiteSpace=wrap;rounded=1;fillColor=#999999;strokeColor=none;shadow=1;fontColor=#FFFFFF;fontStyle=0" parent="1" vertex="1">
                    <mxGeometry x="-330.0000000000002" y="520.0000000000001" width="120" height="60" as="geometry"/>
                </mxCell>
                <mxCell id="ofWiquQbu_0ARYprlp63-276" value="상점 UI" style="whiteSpace=wrap;rounded=1;fillColor=#999999;strokeColor=none;shadow=1;fontColor=#FFFFFF;fontStyle=0" parent="1" vertex="1">
                    <mxGeometry x="-330" y="600.0000000000001" width="120" height="60" as="geometry"/>
                </mxCell>
                <mxCell id="ofWiquQbu_0ARYprlp63-277" value="기타 UI" style="whiteSpace=wrap;rounded=1;fillColor=#999999;strokeColor=none;shadow=1;fontColor=#FFFFFF;fontStyle=0" parent="1" vertex="1">
                    <mxGeometry x="-329.9999999999999" y="680.0000000000001" width="120" height="60" as="geometry"/>
                </mxCell>
                <mxCell id="ofWiquQbu_0ARYprlp63-278" value="" style="edgeStyle=elbowEdgeStyle;elbow=horizontal;rounded=0;fontColor=#000000;endArrow=none;endFill=0;strokeWidth=8;strokeColor=#23445D;" parent="1" source="ofWiquQbu_0ARYprlp63-272" target="ofWiquQbu_0ARYprlp63-273" edge="1">
                    <mxGeometry width="100" height="100" relative="1" as="geometry">
                        <mxPoint x="-350" y="290.00000000000045" as="sourcePoint"/>
                        <mxPoint x="-340.00000000000045" y="390" as="targetPoint"/>
                        <Array as="points">
                            <mxPoint x="-350" y="340"/>
                        </Array>
                    </mxGeometry>
                </mxCell>
                <mxCell id="ofWiquQbu_0ARYprlp63-279" value="" style="edgeStyle=elbowEdgeStyle;elbow=horizontal;rounded=0;fontColor=#000000;endArrow=none;endFill=0;strokeWidth=8;strokeColor=#23445D;" parent="1" source="ofWiquQbu_0ARYprlp63-272" target="ofWiquQbu_0ARYprlp63-274" edge="1">
                    <mxGeometry width="100" height="100" relative="1" as="geometry">
                        <mxPoint x="-340" y="290" as="sourcePoint"/>
                        <mxPoint x="-340.0000000000002" y="470" as="targetPoint"/>
                        <Array as="points">
                            <mxPoint x="-350" y="380"/>
                        </Array>
                    </mxGeometry>
                </mxCell>
                <mxCell id="ofWiquQbu_0ARYprlp63-280" value="" style="edgeStyle=elbowEdgeStyle;elbow=horizontal;rounded=0;fontColor=#000000;endArrow=none;endFill=0;strokeWidth=8;strokeColor=#23445D;" parent="1" source="ofWiquQbu_0ARYprlp63-272" target="ofWiquQbu_0ARYprlp63-277" edge="1">
                    <mxGeometry width="100" height="100" relative="1" as="geometry">
                        <mxPoint x="-340" y="290" as="sourcePoint"/>
                        <mxPoint x="-340" y="710" as="targetPoint"/>
                        <Array as="points">
                            <mxPoint x="-350" y="510"/>
                        </Array>
                    </mxGeometry>
                </mxCell>
                <mxCell id="ofWiquQbu_0ARYprlp63-281" value="" style="edgeStyle=elbowEdgeStyle;elbow=horizontal;rounded=0;fontColor=#000000;endArrow=none;endFill=0;strokeWidth=8;strokeColor=#23445D;" parent="1" source="ofWiquQbu_0ARYprlp63-272" target="ofWiquQbu_0ARYprlp63-276" edge="1">
                    <mxGeometry width="100" height="100" relative="1" as="geometry">
                        <mxPoint x="-340" y="290" as="sourcePoint"/>
                        <mxPoint x="-340" y="630" as="targetPoint"/>
                        <Array as="points">
                            <mxPoint x="-350" y="460"/>
                        </Array>
                    </mxGeometry>
                </mxCell>
                <mxCell id="ofWiquQbu_0ARYprlp63-282" value="" style="edgeStyle=elbowEdgeStyle;elbow=horizontal;rounded=0;fontColor=#000000;endArrow=none;endFill=0;strokeWidth=8;strokeColor=#23445D;" parent="1" source="ofWiquQbu_0ARYprlp63-272" target="ofWiquQbu_0ARYprlp63-275" edge="1">
                    <mxGeometry width="100" height="100" relative="1" as="geometry">
                        <mxPoint x="-340" y="290" as="sourcePoint"/>
                        <mxPoint x="-340.0000000000002" y="550" as="targetPoint"/>
                        <Array as="points">
                            <mxPoint x="-350" y="430"/>
                        </Array>
                    </mxGeometry>
                </mxCell>
                <mxCell id="ofWiquQbu_0ARYprlp63-284" value="" style="edgeStyle=elbowEdgeStyle;elbow=vertical;rounded=0;fontColor=#000000;endArrow=none;endFill=0;strokeWidth=8;strokeColor=#23445D;" parent="1" source="6" target="ofWiquQbu_0ARYprlp63-272" edge="1">
                    <mxGeometry width="100" height="100" relative="1" as="geometry">
                        <mxPoint x="240" y="200" as="sourcePoint"/>
                        <mxPoint x="-280" y="250" as="targetPoint"/>
                    </mxGeometry>
                </mxCell>
                <mxCell id="ofWiquQbu_0ARYprlp63-309" value="일기 시스템" style="whiteSpace=wrap;rounded=1;fillColor=#12AAB5;strokeColor=none;shadow=1;fontColor=#FFFFFF;" parent="1" vertex="1">
                    <mxGeometry x="199.99999999999977" y="260.0000000000001" width="120" height="60" as="geometry"/>
                </mxCell>
                <mxCell id="ofWiquQbu_0ARYprlp63-310" value="서버 저장" style="whiteSpace=wrap;rounded=1;fillColor=#999999;strokeColor=none;shadow=1;fontColor=#FFFFFF;fontStyle=0" parent="1" vertex="1">
                    <mxGeometry x="199.99999999999932" y="360.0000000000001" width="120" height="60" as="geometry"/>
                </mxCell>
                <mxCell id="ofWiquQbu_0ARYprlp63-315" value="" style="edgeStyle=elbowEdgeStyle;elbow=horizontal;rounded=0;fontColor=#000000;endArrow=none;endFill=0;strokeWidth=8;strokeColor=#23445D;" parent="1" source="ofWiquQbu_0ARYprlp63-309" target="ofWiquQbu_0ARYprlp63-310" edge="1">
                    <mxGeometry width="100" height="100" relative="1" as="geometry">
                        <mxPoint x="170" y="290.00000000000045" as="sourcePoint"/>
                        <mxPoint x="179.99999999999955" y="390" as="targetPoint"/>
                        <Array as="points">
                            <mxPoint x="180" y="340"/>
                        </Array>
                    </mxGeometry>
                </mxCell>
                <mxCell id="ofWiquQbu_0ARYprlp63-320" value="" style="edgeStyle=elbowEdgeStyle;elbow=vertical;rounded=0;fontColor=#000000;endArrow=none;endFill=0;strokeWidth=8;strokeColor=#23445D;" parent="1" source="6" target="ofWiquQbu_0ARYprlp63-309" edge="1">
                    <mxGeometry width="100" height="100" relative="1" as="geometry">
                        <mxPoint x="240" y="190" as="sourcePoint"/>
                        <mxPoint x="310" y="140" as="targetPoint"/>
                    </mxGeometry>
                </mxCell>
                <mxCell id="ofWiquQbu_0ARYprlp63-321" value="동물 시뮬레이션" style="whiteSpace=wrap;rounded=1;fillColor=#12AAB5;strokeColor=none;shadow=1;fontColor=#FFFFFF;" parent="1" vertex="1">
                    <mxGeometry x="369.9999999999998" y="260.0000000000001" width="120" height="60" as="geometry"/>
                </mxCell>
                <mxCell id="235" value="" style="edgeStyle=none;html=1;" edge="1" parent="1" source="ofWiquQbu_0ARYprlp63-322" target="ofWiquQbu_0ARYprlp63-321">
                    <mxGeometry relative="1" as="geometry"/>
                </mxCell>
                <mxCell id="ofWiquQbu_0ARYprlp63-322" value="고양이 구현" style="whiteSpace=wrap;rounded=1;fillColor=#999999;strokeColor=none;shadow=1;fontColor=#FFFFFF;fontStyle=0" parent="1" vertex="1">
                    <mxGeometry x="369.9999999999993" y="360.0000000000001" width="120" height="60" as="geometry"/>
                </mxCell>
                <mxCell id="ofWiquQbu_0ARYprlp63-323" value="강아지 구현" style="whiteSpace=wrap;rounded=1;fillColor=#999999;strokeColor=none;shadow=1;fontColor=#FFFFFF;fontStyle=0" parent="1" vertex="1">
                    <mxGeometry x="369.99999999999955" y="440.0000000000001" width="120" height="60" as="geometry"/>
                </mxCell>
                <mxCell id="ofWiquQbu_0ARYprlp63-324" value="상호작용, 친밀도 &#10;구현" style="whiteSpace=wrap;rounded=1;fillColor=#999999;strokeColor=none;shadow=1;fontColor=#FFFFFF;fontStyle=0" parent="1" vertex="1">
                    <mxGeometry x="369.99999999999955" y="520.0000000000001" width="120" height="60" as="geometry"/>
                </mxCell>
                <mxCell id="ofWiquQbu_0ARYprlp63-325" value="먹이, 포만감 구현" style="whiteSpace=wrap;rounded=1;fillColor=#999999;strokeColor=none;shadow=1;fontColor=#FFFFFF;fontStyle=0" parent="1" vertex="1">
                    <mxGeometry x="369.99999999999966" y="600.0000000000001" width="120" height="60" as="geometry"/>
                </mxCell>
                <mxCell id="ofWiquQbu_0ARYprlp63-326" value="스킨 구현" style="whiteSpace=wrap;rounded=1;fillColor=#999999;strokeColor=none;shadow=1;fontColor=#FFFFFF;fontStyle=0" parent="1" vertex="1">
                    <mxGeometry x="369.9999999999998" y="680.0000000000001" width="120" height="60" as="geometry"/>
                </mxCell>
                <mxCell id="ofWiquQbu_0ARYprlp63-327" value="" style="edgeStyle=elbowEdgeStyle;elbow=horizontal;rounded=0;fontColor=#000000;endArrow=none;endFill=0;strokeWidth=8;strokeColor=#23445D;" parent="1" source="ofWiquQbu_0ARYprlp63-321" target="ofWiquQbu_0ARYprlp63-322" edge="1">
                    <mxGeometry width="100" height="100" relative="1" as="geometry">
                        <mxPoint x="340" y="290.00000000000045" as="sourcePoint"/>
                        <mxPoint x="349.99999999999955" y="390" as="targetPoint"/>
                        <Array as="points">
                            <mxPoint x="350" y="340"/>
                        </Array>
                    </mxGeometry>
                </mxCell>
                <mxCell id="ofWiquQbu_0ARYprlp63-328" value="" style="edgeStyle=elbowEdgeStyle;elbow=horizontal;rounded=0;fontColor=#000000;endArrow=none;endFill=0;strokeWidth=8;strokeColor=#23445D;" parent="1" source="ofWiquQbu_0ARYprlp63-321" target="ofWiquQbu_0ARYprlp63-323" edge="1">
                    <mxGeometry width="100" height="100" relative="1" as="geometry">
                        <mxPoint x="350" y="290" as="sourcePoint"/>
                        <mxPoint x="349.9999999999998" y="470" as="targetPoint"/>
                        <Array as="points">
                            <mxPoint x="350" y="380"/>
                        </Array>
                    </mxGeometry>
                </mxCell>
                <mxCell id="ofWiquQbu_0ARYprlp63-329" value="" style="edgeStyle=elbowEdgeStyle;elbow=horizontal;rounded=0;fontColor=#000000;endArrow=none;endFill=0;strokeWidth=8;strokeColor=#23445D;" parent="1" source="ofWiquQbu_0ARYprlp63-321" target="ofWiquQbu_0ARYprlp63-326" edge="1">
                    <mxGeometry width="100" height="100" relative="1" as="geometry">
                        <mxPoint x="350" y="290" as="sourcePoint"/>
                        <mxPoint x="350" y="710" as="targetPoint"/>
                        <Array as="points">
                            <mxPoint x="350" y="500"/>
                        </Array>
                    </mxGeometry>
                </mxCell>
                <mxCell id="ofWiquQbu_0ARYprlp63-330" value="" style="edgeStyle=elbowEdgeStyle;elbow=horizontal;rounded=0;fontColor=#000000;endArrow=none;endFill=0;strokeWidth=8;strokeColor=#23445D;" parent="1" source="ofWiquQbu_0ARYprlp63-321" target="ofWiquQbu_0ARYprlp63-325" edge="1">
                    <mxGeometry width="100" height="100" relative="1" as="geometry">
                        <mxPoint x="350" y="290" as="sourcePoint"/>
                        <mxPoint x="350" y="630" as="targetPoint"/>
                        <Array as="points">
                            <mxPoint x="350" y="460"/>
                        </Array>
                    </mxGeometry>
                </mxCell>
                <mxCell id="ofWiquQbu_0ARYprlp63-331" value="" style="edgeStyle=elbowEdgeStyle;elbow=horizontal;rounded=0;fontColor=#000000;endArrow=none;endFill=0;strokeWidth=8;strokeColor=#23445D;" parent="1" source="ofWiquQbu_0ARYprlp63-321" target="ofWiquQbu_0ARYprlp63-324" edge="1">
                    <mxGeometry width="100" height="100" relative="1" as="geometry">
                        <mxPoint x="350" y="290" as="sourcePoint"/>
                        <mxPoint x="349.9999999999998" y="550" as="targetPoint"/>
                        <Array as="points">
                            <mxPoint x="350" y="430"/>
                        </Array>
                    </mxGeometry>
                </mxCell>
                <mxCell id="ofWiquQbu_0ARYprlp63-332" value="" style="edgeStyle=elbowEdgeStyle;elbow=vertical;rounded=0;fontColor=#000000;endArrow=none;endFill=0;strokeWidth=8;strokeColor=#23445D;exitX=0.5;exitY=1;exitDx=0;exitDy=0;" parent="1" source="6" target="ofWiquQbu_0ARYprlp63-321" edge="1">
                    <mxGeometry width="100" height="100" relative="1" as="geometry">
                        <mxPoint x="410" y="190" as="sourcePoint"/>
                        <mxPoint x="480" y="140" as="targetPoint"/>
                    </mxGeometry>
                </mxCell>
                <mxCell id="ofWiquQbu_0ARYprlp63-345" value="상점 창고 개발" style="whiteSpace=wrap;rounded=1;fillColor=#12AAB5;strokeColor=none;shadow=1;fontColor=#FFFFFF;" parent="1" vertex="1">
                    <mxGeometry x="1219.9999999999998" y="260.0000000000002" width="120" height="60" as="geometry"/>
                </mxCell>
                <mxCell id="ofWiquQbu_0ARYprlp63-356" value="" style="edgeStyle=elbowEdgeStyle;elbow=vertical;rounded=0;fontColor=#000000;endArrow=none;endFill=0;strokeWidth=8;strokeColor=#23445D;" parent="1" target="ofWiquQbu_0ARYprlp63-345" edge="1">
                    <mxGeometry width="100" height="100" relative="1" as="geometry">
                        <mxPoint x="1310" y="190" as="sourcePoint"/>
                        <mxPoint x="1420" y="270" as="targetPoint"/>
                    </mxGeometry>
                </mxCell>
                <mxCell id="ofWiquQbu_0ARYprlp63-357" value="상점 시스템" style="whiteSpace=wrap;rounded=1;fillColor=#12AAB5;strokeColor=none;shadow=1;fontColor=#FFFFFF;" parent="1" vertex="1">
                    <mxGeometry x="539.9999999999998" y="260.0000000000002" width="120" height="60" as="geometry"/>
                </mxCell>
                <mxCell id="ofWiquQbu_0ARYprlp63-358" value="결제 시스템" style="whiteSpace=wrap;rounded=1;fillColor=#999999;strokeColor=none;shadow=1;fontColor=#FFFFFF;fontStyle=0" parent="1" vertex="1">
                    <mxGeometry x="539.9999999999998" y="360.0000000000002" width="120" height="60" as="geometry"/>
                </mxCell>
                <mxCell id="ofWiquQbu_0ARYprlp63-363" value="" style="edgeStyle=elbowEdgeStyle;elbow=horizontal;rounded=0;fontColor=#000000;endArrow=none;endFill=0;strokeWidth=8;strokeColor=#23445D;" parent="1" source="ofWiquQbu_0ARYprlp63-357" target="ofWiquQbu_0ARYprlp63-358" edge="1">
                    <mxGeometry width="100" height="100" relative="1" as="geometry">
                        <mxPoint x="520" y="290.00000000000057" as="sourcePoint"/>
                        <mxPoint x="529.9999999999995" y="390.0000000000001" as="targetPoint"/>
                        <Array as="points">
                            <mxPoint x="520" y="340.0000000000001"/>
                        </Array>
                    </mxGeometry>
                </mxCell>
                <mxCell id="ofWiquQbu_0ARYprlp63-368" value="" style="edgeStyle=elbowEdgeStyle;elbow=vertical;rounded=0;fontColor=#000000;endArrow=none;endFill=0;strokeWidth=8;strokeColor=#23445D;exitX=0.5;exitY=1;exitDx=0;exitDy=0;" parent="1" source="6" target="ofWiquQbu_0ARYprlp63-357" edge="1">
                    <mxGeometry width="100" height="100" relative="1" as="geometry">
                        <mxPoint x="750" y="190" as="sourcePoint"/>
                        <mxPoint x="650" y="150" as="targetPoint"/>
                    </mxGeometry>
                </mxCell>
                <mxCell id="ofWiquQbu_0ARYprlp63-375" value="" style="edgeStyle=elbowEdgeStyle;elbow=horizontal;rounded=0;fontColor=#000000;endArrow=none;endFill=0;strokeWidth=8;strokeColor=#23445D;" parent="1" edge="1">
                    <mxGeometry width="100" height="100" relative="1" as="geometry">
                        <mxPoint x="450" y="330" as="sourcePoint"/>
                        <mxPoint x="439.99999999999955" y="430.0000000000001" as="targetPoint"/>
                        <Array as="points">
                            <mxPoint x="430" y="380.0000000000001"/>
                        </Array>
                    </mxGeometry>
                </mxCell>
                <mxCell id="ofWiquQbu_0ARYprlp63-376" value="" style="edgeStyle=elbowEdgeStyle;elbow=horizontal;rounded=0;fontColor=#000000;endArrow=none;endFill=0;strokeWidth=8;strokeColor=#23445D;" parent="1" edge="1">
                    <mxGeometry width="100" height="100" relative="1" as="geometry">
                        <mxPoint x="450" y="330" as="sourcePoint"/>
                        <mxPoint x="439.9999999999998" y="510.0000000000001" as="targetPoint"/>
                        <Array as="points">
                            <mxPoint x="430" y="420.0000000000001"/>
                        </Array>
                    </mxGeometry>
                </mxCell>
                <mxCell id="ofWiquQbu_0ARYprlp63-378" value="" style="edgeStyle=elbowEdgeStyle;elbow=horizontal;rounded=0;fontColor=#000000;endArrow=none;endFill=0;strokeWidth=8;strokeColor=#23445D;" parent="1" edge="1">
                    <mxGeometry width="100" height="100" relative="1" as="geometry">
                        <mxPoint x="450" y="330" as="sourcePoint"/>
                        <mxPoint x="440" y="670.0000000000001" as="targetPoint"/>
                        <Array as="points">
                            <mxPoint x="430" y="500.0000000000001"/>
                        </Array>
                    </mxGeometry>
                </mxCell>
                <mxCell id="ofWiquQbu_0ARYprlp63-381" value="계획서 작성" style="whiteSpace=wrap;rounded=1;fillColor=#12AAB5;strokeColor=none;shadow=1;fontColor=#FFFFFF;" parent="1" vertex="1">
                    <mxGeometry x="-840" y="260.0000000000001" width="120" height="60" as="geometry"/>
                </mxCell>
                <mxCell id="ofWiquQbu_0ARYprlp63-382" value="타당성" style="whiteSpace=wrap;rounded=1;fillColor=#999999;strokeColor=none;shadow=1;fontColor=#FFFFFF;fontStyle=0" parent="1" vertex="1">
                    <mxGeometry x="-840" y="360.0000000000001" width="120" height="60" as="geometry"/>
                </mxCell>
                <mxCell id="ofWiquQbu_0ARYprlp63-383" value="기대 효과" style="whiteSpace=wrap;rounded=1;fillColor=#999999;strokeColor=none;shadow=1;fontColor=#FFFFFF;fontStyle=0" parent="1" vertex="1">
                    <mxGeometry x="-840" y="440.0000000000001" width="120" height="60" as="geometry"/>
                </mxCell>
                <mxCell id="ofWiquQbu_0ARYprlp63-384" value="이건 돈이 됩니다" style="whiteSpace=wrap;rounded=1;fillColor=#999999;strokeColor=none;shadow=1;fontColor=#FFFFFF;fontStyle=0" parent="1" vertex="1">
                    <mxGeometry x="-840" y="520.0000000000001" width="120" height="60" as="geometry"/>
                </mxCell>
                <mxCell id="ofWiquQbu_0ARYprlp63-387" value="" style="edgeStyle=elbowEdgeStyle;elbow=vertical;rounded=0;fontColor=#000000;endArrow=none;endFill=0;strokeWidth=8;strokeColor=#23445D;exitX=0.5;exitY=1;exitDx=0;exitDy=0;" parent="1" source="3" target="ofWiquQbu_0ARYprlp63-381" edge="1">
                    <mxGeometry width="100" height="100" relative="1" as="geometry">
                        <mxPoint x="-780" y="190" as="sourcePoint"/>
                        <mxPoint x="-890" y="150" as="targetPoint"/>
                    </mxGeometry>
                </mxCell>
                <mxCell id="ofWiquQbu_0ARYprlp63-388" value="" style="edgeStyle=elbowEdgeStyle;elbow=horizontal;rounded=0;fontColor=#000000;endArrow=none;endFill=0;strokeWidth=8;strokeColor=#23445D;" parent="1" source="ofWiquQbu_0ARYprlp63-381" target="ofWiquQbu_0ARYprlp63-382" edge="1">
                    <mxGeometry width="100" height="100" relative="1" as="geometry">
                        <mxPoint x="-900" y="440" as="sourcePoint"/>
                        <mxPoint x="-800" y="340" as="targetPoint"/>
                        <Array as="points">
                            <mxPoint x="-860" y="340"/>
                        </Array>
                    </mxGeometry>
                </mxCell>
                <mxCell id="ofWiquQbu_0ARYprlp63-389" value="" style="edgeStyle=elbowEdgeStyle;elbow=horizontal;rounded=0;fontColor=#000000;endArrow=none;endFill=0;strokeWidth=8;strokeColor=#23445D;" parent="1" source="ofWiquQbu_0ARYprlp63-381" target="ofWiquQbu_0ARYprlp63-383" edge="1">
                    <mxGeometry width="100" height="100" relative="1" as="geometry">
                        <mxPoint x="-830" y="300" as="sourcePoint"/>
                        <mxPoint x="-830" y="400" as="targetPoint"/>
                        <Array as="points">
                            <mxPoint x="-860" y="360"/>
                        </Array>
                    </mxGeometry>
                </mxCell>
                <mxCell id="ofWiquQbu_0ARYprlp63-392" value="" style="edgeStyle=elbowEdgeStyle;elbow=horizontal;rounded=0;fontColor=#000000;endArrow=none;endFill=0;strokeWidth=8;strokeColor=#23445D;" parent="1" source="ofWiquQbu_0ARYprlp63-381" target="ofWiquQbu_0ARYprlp63-384" edge="1">
                    <mxGeometry width="100" height="100" relative="1" as="geometry">
                        <mxPoint x="-800" y="330" as="sourcePoint"/>
                        <mxPoint x="-800" y="430" as="targetPoint"/>
                        <Array as="points">
                            <mxPoint x="-860" y="390"/>
                        </Array>
                    </mxGeometry>
                </mxCell>
                <mxCell id="ofWiquQbu_0ARYprlp63-393" value="리소스 제작" style="whiteSpace=wrap;rounded=1;fillColor=#12AAB5;strokeColor=none;shadow=1;fontColor=#FFFFFF;" parent="1" vertex="1">
                    <mxGeometry x="729.9999999999998" y="260.0000000000001" width="120" height="60" as="geometry"/>
                </mxCell>
                <mxCell id="ofWiquQbu_0ARYprlp63-394" value="UI" style="whiteSpace=wrap;rounded=1;fillColor=#999999;strokeColor=none;shadow=1;fontColor=#FFFFFF;fontStyle=0" parent="1" vertex="1">
                    <mxGeometry x="729.9999999999993" y="360.0000000000001" width="120" height="60" as="geometry"/>
                </mxCell>
                <mxCell id="ofWiquQbu_0ARYprlp63-395" value="다이어리" style="whiteSpace=wrap;rounded=1;fillColor=#999999;strokeColor=none;shadow=1;fontColor=#FFFFFF;fontStyle=0" parent="1" vertex="1">
                    <mxGeometry x="729.9999999999995" y="440.0000000000001" width="120" height="60" as="geometry"/>
                </mxCell>
                <mxCell id="ofWiquQbu_0ARYprlp63-396" value="동물" style="whiteSpace=wrap;rounded=1;fillColor=#999999;strokeColor=none;shadow=1;fontColor=#FFFFFF;fontStyle=0" parent="1" vertex="1">
                    <mxGeometry x="729.9999999999995" y="520.0000000000001" width="120" height="60" as="geometry"/>
                </mxCell>
                <mxCell id="ofWiquQbu_0ARYprlp63-397" value="사운드" style="whiteSpace=wrap;rounded=1;fillColor=#999999;strokeColor=none;shadow=1;fontColor=#FFFFFF;fontStyle=0" parent="1" vertex="1">
                    <mxGeometry x="729.9999999999997" y="600.0000000000001" width="120" height="60" as="geometry"/>
                </mxCell>
                <mxCell id="ofWiquQbu_0ARYprlp63-399" value="" style="edgeStyle=elbowEdgeStyle;elbow=horizontal;rounded=0;fontColor=#000000;endArrow=none;endFill=0;strokeWidth=8;strokeColor=#23445D;" parent="1" source="ofWiquQbu_0ARYprlp63-393" target="ofWiquQbu_0ARYprlp63-394" edge="1">
                    <mxGeometry width="100" height="100" relative="1" as="geometry">
                        <mxPoint x="700" y="290.00000000000045" as="sourcePoint"/>
                        <mxPoint x="709.9999999999995" y="390" as="targetPoint"/>
                        <Array as="points">
                            <mxPoint x="710" y="340"/>
                        </Array>
                    </mxGeometry>
                </mxCell>
                <mxCell id="ofWiquQbu_0ARYprlp63-400" value="" style="edgeStyle=elbowEdgeStyle;elbow=horizontal;rounded=0;fontColor=#000000;endArrow=none;endFill=0;strokeWidth=8;strokeColor=#23445D;" parent="1" source="ofWiquQbu_0ARYprlp63-393" target="ofWiquQbu_0ARYprlp63-395" edge="1">
                    <mxGeometry width="100" height="100" relative="1" as="geometry">
                        <mxPoint x="710" y="290" as="sourcePoint"/>
                        <mxPoint x="709.9999999999998" y="470" as="targetPoint"/>
                        <Array as="points">
                            <mxPoint x="710" y="380"/>
                        </Array>
                    </mxGeometry>
                </mxCell>
                <mxCell id="ofWiquQbu_0ARYprlp63-402" value="" style="edgeStyle=elbowEdgeStyle;elbow=horizontal;rounded=0;fontColor=#000000;endArrow=none;endFill=0;strokeWidth=8;strokeColor=#23445D;" parent="1" source="ofWiquQbu_0ARYprlp63-393" target="ofWiquQbu_0ARYprlp63-397" edge="1">
                    <mxGeometry width="100" height="100" relative="1" as="geometry">
                        <mxPoint x="710" y="290" as="sourcePoint"/>
                        <mxPoint x="710" y="630" as="targetPoint"/>
                        <Array as="points">
                            <mxPoint x="710" y="460"/>
                        </Array>
                    </mxGeometry>
                </mxCell>
                <mxCell id="ofWiquQbu_0ARYprlp63-403" value="" style="edgeStyle=elbowEdgeStyle;elbow=horizontal;rounded=0;fontColor=#000000;endArrow=none;endFill=0;strokeWidth=8;strokeColor=#23445D;" parent="1" source="ofWiquQbu_0ARYprlp63-393" target="ofWiquQbu_0ARYprlp63-396" edge="1">
                    <mxGeometry width="100" height="100" relative="1" as="geometry">
                        <mxPoint x="710" y="290" as="sourcePoint"/>
                        <mxPoint x="709.9999999999998" y="550" as="targetPoint"/>
                        <Array as="points">
                            <mxPoint x="710" y="430"/>
                        </Array>
                    </mxGeometry>
                </mxCell>
                <mxCell id="ofWiquQbu_0ARYprlp63-404" value="" style="edgeStyle=elbowEdgeStyle;elbow=vertical;rounded=0;fontColor=#000000;endArrow=none;endFill=0;strokeWidth=8;strokeColor=#23445D;" parent="1" source="7" target="ofWiquQbu_0ARYprlp63-393" edge="1">
                    <mxGeometry width="100" height="100" relative="1" as="geometry">
                        <mxPoint x="820" y="200" as="sourcePoint"/>
                        <mxPoint x="780" y="150" as="targetPoint"/>
                    </mxGeometry>
                </mxCell>
                <mxCell id="ofWiquQbu_0ARYprlp63-405" value="고양이 모션 제작" style="whiteSpace=wrap;rounded=1;fillColor=#12AAB5;strokeColor=none;shadow=1;fontColor=#FFFFFF;" parent="1" vertex="1">
                    <mxGeometry x="889.9999999999998" y="260.0000000000001" width="120" height="60" as="geometry"/>
                </mxCell>
                <mxCell id="ofWiquQbu_0ARYprlp63-406" value="상호작용" style="whiteSpace=wrap;rounded=1;fillColor=#999999;strokeColor=none;shadow=1;fontColor=#FFFFFF;fontStyle=0" parent="1" vertex="1">
                    <mxGeometry x="889.9999999999993" y="360.0000000000001" width="120" height="60" as="geometry"/>
                </mxCell>
                <mxCell id="ofWiquQbu_0ARYprlp63-407" value="친밀도, 포만감, 수면" style="whiteSpace=wrap;rounded=1;fillColor=#999999;strokeColor=none;shadow=1;fontColor=#FFFFFF;fontStyle=0" parent="1" vertex="1">
                    <mxGeometry x="889.9999999999995" y="440.0000000000001" width="120" height="60" as="geometry"/>
                </mxCell>
                <mxCell id="ofWiquQbu_0ARYprlp63-411" value="" style="edgeStyle=elbowEdgeStyle;elbow=horizontal;rounded=0;fontColor=#000000;endArrow=none;endFill=0;strokeWidth=8;strokeColor=#23445D;" parent="1" source="ofWiquQbu_0ARYprlp63-405" target="ofWiquQbu_0ARYprlp63-406" edge="1">
                    <mxGeometry width="100" height="100" relative="1" as="geometry">
                        <mxPoint x="860" y="290.00000000000045" as="sourcePoint"/>
                        <mxPoint x="869.9999999999995" y="390" as="targetPoint"/>
                        <Array as="points">
                            <mxPoint x="870" y="340"/>
                        </Array>
                    </mxGeometry>
                </mxCell>
                <mxCell id="ofWiquQbu_0ARYprlp63-412" value="" style="edgeStyle=elbowEdgeStyle;elbow=horizontal;rounded=0;fontColor=#000000;endArrow=none;endFill=0;strokeWidth=8;strokeColor=#23445D;" parent="1" source="ofWiquQbu_0ARYprlp63-405" target="ofWiquQbu_0ARYprlp63-407" edge="1">
                    <mxGeometry width="100" height="100" relative="1" as="geometry">
                        <mxPoint x="870" y="290" as="sourcePoint"/>
                        <mxPoint x="869.9999999999998" y="470" as="targetPoint"/>
                        <Array as="points">
                            <mxPoint x="870" y="380"/>
                        </Array>
                    </mxGeometry>
                </mxCell>
                <mxCell id="ofWiquQbu_0ARYprlp63-416" value="" style="edgeStyle=elbowEdgeStyle;elbow=vertical;rounded=0;fontColor=#000000;endArrow=none;endFill=0;strokeWidth=8;strokeColor=#23445D;" parent="1" source="7" target="ofWiquQbu_0ARYprlp63-405" edge="1">
                    <mxGeometry width="100" height="100" relative="1" as="geometry">
                        <mxPoint x="820" y="200" as="sourcePoint"/>
                        <mxPoint x="960" y="150" as="targetPoint"/>
                    </mxGeometry>
                </mxCell>
                <mxCell id="ofWiquQbu_0ARYprlp63-417" value="다이어리 패이지 제작" style="whiteSpace=wrap;rounded=1;fillColor=#12AAB5;strokeColor=none;shadow=1;fontColor=#FFFFFF;" parent="1" vertex="1">
                    <mxGeometry x="1059.9999999999998" y="260.0000000000001" width="120" height="60" as="geometry"/>
                </mxCell>
                <mxCell id="ofWiquQbu_0ARYprlp63-418" value="WORK&#10;PACKAGE 1" style="whiteSpace=wrap;rounded=1;fillColor=#999999;strokeColor=none;shadow=1;fontColor=#FFFFFF;fontStyle=0" parent="1" vertex="1">
                    <mxGeometry x="1059.9999999999993" y="360.0000000000001" width="120" height="60" as="geometry"/>
                </mxCell>
                <mxCell id="ofWiquQbu_0ARYprlp63-419" value="WORK&#10;PACKAGE 2" style="whiteSpace=wrap;rounded=1;fillColor=#999999;strokeColor=none;shadow=1;fontColor=#FFFFFF;fontStyle=0" parent="1" vertex="1">
                    <mxGeometry x="1059.9999999999995" y="440.0000000000001" width="120" height="60" as="geometry"/>
                </mxCell>
                <mxCell id="ofWiquQbu_0ARYprlp63-420" value="WORK&#10;PACKAGE 3" style="whiteSpace=wrap;rounded=1;fillColor=#999999;strokeColor=none;shadow=1;fontColor=#FFFFFF;fontStyle=0" parent="1" vertex="1">
                    <mxGeometry x="1059.9999999999995" y="520.0000000000001" width="120" height="60" as="geometry"/>
                </mxCell>
                <mxCell id="ofWiquQbu_0ARYprlp63-421" value="WORK&#10;PACKAGE 4" style="whiteSpace=wrap;rounded=1;fillColor=#999999;strokeColor=none;shadow=1;fontColor=#FFFFFF;fontStyle=0" parent="1" vertex="1">
                    <mxGeometry x="1059.9999999999995" y="600.0000000000001" width="120" height="60" as="geometry"/>
                </mxCell>
                <mxCell id="ofWiquQbu_0ARYprlp63-422" value="WORK&#10;PACKAGE 5" style="whiteSpace=wrap;rounded=1;fillColor=#999999;strokeColor=none;shadow=1;fontColor=#FFFFFF;fontStyle=0" parent="1" vertex="1">
                    <mxGeometry x="1059.9999999999998" y="680.0000000000001" width="120" height="60" as="geometry"/>
                </mxCell>
                <mxCell id="ofWiquQbu_0ARYprlp63-423" value="" style="edgeStyle=elbowEdgeStyle;elbow=horizontal;rounded=0;fontColor=#000000;endArrow=none;endFill=0;strokeWidth=8;strokeColor=#23445D;" parent="1" source="ofWiquQbu_0ARYprlp63-417" target="ofWiquQbu_0ARYprlp63-418" edge="1">
                    <mxGeometry width="100" height="100" relative="1" as="geometry">
                        <mxPoint x="1030" y="290.00000000000045" as="sourcePoint"/>
                        <mxPoint x="1039.9999999999995" y="390" as="targetPoint"/>
                        <Array as="points">
                            <mxPoint x="1040" y="340"/>
                        </Array>
                    </mxGeometry>
                </mxCell>
                <mxCell id="ofWiquQbu_0ARYprlp63-424" value="" style="edgeStyle=elbowEdgeStyle;elbow=horizontal;rounded=0;fontColor=#000000;endArrow=none;endFill=0;strokeWidth=8;strokeColor=#23445D;" parent="1" source="ofWiquQbu_0ARYprlp63-417" target="ofWiquQbu_0ARYprlp63-419" edge="1">
                    <mxGeometry width="100" height="100" relative="1" as="geometry">
                        <mxPoint x="1040" y="290" as="sourcePoint"/>
                        <mxPoint x="1039.9999999999998" y="470" as="targetPoint"/>
                        <Array as="points">
                            <mxPoint x="1040" y="380"/>
                        </Array>
                    </mxGeometry>
                </mxCell>
                <mxCell id="ofWiquQbu_0ARYprlp63-425" value="" style="edgeStyle=elbowEdgeStyle;elbow=horizontal;rounded=0;fontColor=#000000;endArrow=none;endFill=0;strokeWidth=8;strokeColor=#23445D;" parent="1" source="ofWiquQbu_0ARYprlp63-417" target="ofWiquQbu_0ARYprlp63-422" edge="1">
                    <mxGeometry width="100" height="100" relative="1" as="geometry">
                        <mxPoint x="1040" y="290" as="sourcePoint"/>
                        <mxPoint x="1040" y="710" as="targetPoint"/>
                        <Array as="points">
                            <mxPoint x="1040" y="500"/>
                        </Array>
                    </mxGeometry>
                </mxCell>
                <mxCell id="ofWiquQbu_0ARYprlp63-426" value="" style="edgeStyle=elbowEdgeStyle;elbow=horizontal;rounded=0;fontColor=#000000;endArrow=none;endFill=0;strokeWidth=8;strokeColor=#23445D;" parent="1" source="ofWiquQbu_0ARYprlp63-417" target="ofWiquQbu_0ARYprlp63-421" edge="1">
                    <mxGeometry width="100" height="100" relative="1" as="geometry">
                        <mxPoint x="1040" y="290" as="sourcePoint"/>
                        <mxPoint x="1040" y="630" as="targetPoint"/>
                        <Array as="points">
                            <mxPoint x="1040" y="460"/>
                        </Array>
                    </mxGeometry>
                </mxCell>
                <mxCell id="ofWiquQbu_0ARYprlp63-427" value="" style="edgeStyle=elbowEdgeStyle;elbow=horizontal;rounded=0;fontColor=#000000;endArrow=none;endFill=0;strokeWidth=8;strokeColor=#23445D;" parent="1" source="ofWiquQbu_0ARYprlp63-417" target="ofWiquQbu_0ARYprlp63-420" edge="1">
                    <mxGeometry width="100" height="100" relative="1" as="geometry">
                        <mxPoint x="1040" y="290" as="sourcePoint"/>
                        <mxPoint x="1039.9999999999998" y="550" as="targetPoint"/>
                        <Array as="points">
                            <mxPoint x="1040" y="430"/>
                        </Array>
                    </mxGeometry>
                </mxCell>
                <mxCell id="ofWiquQbu_0ARYprlp63-428" value="" style="edgeStyle=elbowEdgeStyle;elbow=vertical;rounded=0;fontColor=#000000;endArrow=none;endFill=0;strokeWidth=8;strokeColor=#23445D;" parent="1" source="7" target="ofWiquQbu_0ARYprlp63-417" edge="1">
                    <mxGeometry width="100" height="100" relative="1" as="geometry">
                        <mxPoint x="820" y="200" as="sourcePoint"/>
                        <mxPoint x="1130" y="150" as="targetPoint"/>
                    </mxGeometry>
                </mxCell>
                <mxCell id="ofWiquQbu_0ARYprlp63-442" value="홈 화면" style="whiteSpace=wrap;rounded=1;fillColor=#12AAB5;strokeColor=none;shadow=1;fontColor=#FFFFFF;" parent="1" vertex="1">
                    <mxGeometry x="1379.9999999999998" y="260.0000000000002" width="120" height="60" as="geometry"/>
                </mxCell>
                <mxCell id="ofWiquQbu_0ARYprlp63-443" value="상단 바" style="whiteSpace=wrap;rounded=1;fillColor=#999999;strokeColor=none;shadow=1;fontColor=#FFFFFF;fontStyle=0" parent="1" vertex="1">
                    <mxGeometry x="1379.9999999999993" y="360.0000000000002" width="120" height="60" as="geometry"/>
                </mxCell>
                <mxCell id="ofWiquQbu_0ARYprlp63-444" value="하단 바" style="whiteSpace=wrap;rounded=1;fillColor=#999999;strokeColor=none;shadow=1;fontColor=#FFFFFF;fontStyle=0" parent="1" vertex="1">
                    <mxGeometry x="1379.9999999999995" y="440.0000000000002" width="120" height="60" as="geometry"/>
                </mxCell>
                <mxCell id="ofWiquQbu_0ARYprlp63-448" value="" style="edgeStyle=elbowEdgeStyle;elbow=horizontal;rounded=0;fontColor=#000000;endArrow=none;endFill=0;strokeWidth=8;strokeColor=#23445D;" parent="1" source="ofWiquQbu_0ARYprlp63-442" target="ofWiquQbu_0ARYprlp63-443" edge="1">
                    <mxGeometry width="100" height="100" relative="1" as="geometry">
                        <mxPoint x="1350" y="290.00000000000057" as="sourcePoint"/>
                        <mxPoint x="1359.9999999999995" y="390.0000000000001" as="targetPoint"/>
                        <Array as="points">
                            <mxPoint x="1360" y="340.0000000000001"/>
                        </Array>
                    </mxGeometry>
                </mxCell>
                <mxCell id="ofWiquQbu_0ARYprlp63-449" value="" style="edgeStyle=elbowEdgeStyle;elbow=horizontal;rounded=0;fontColor=#000000;endArrow=none;endFill=0;strokeWidth=8;strokeColor=#23445D;" parent="1" source="ofWiquQbu_0ARYprlp63-442" target="ofWiquQbu_0ARYprlp63-444" edge="1">
                    <mxGeometry width="100" height="100" relative="1" as="geometry">
                        <mxPoint x="1360" y="290.0000000000001" as="sourcePoint"/>
                        <mxPoint x="1359.9999999999998" y="470.0000000000001" as="targetPoint"/>
                        <Array as="points">
                            <mxPoint x="1360" y="380.0000000000001"/>
                        </Array>
                    </mxGeometry>
                </mxCell>
                <mxCell id="ofWiquQbu_0ARYprlp63-453" value="코드 병합" style="whiteSpace=wrap;rounded=1;fillColor=#12AAB5;strokeColor=none;shadow=1;fontColor=#FFFFFF;" parent="1" vertex="1">
                    <mxGeometry x="1549.9999999999998" y="260.0000000000002" width="120" height="60" as="geometry"/>
                </mxCell>
                <mxCell id="ofWiquQbu_0ARYprlp63-454" value="리펙토링" style="whiteSpace=wrap;rounded=1;fillColor=#999999;strokeColor=none;shadow=1;fontColor=#FFFFFF;fontStyle=0" parent="1" vertex="1">
                    <mxGeometry x="1549.9999999999993" y="360.0000000000002" width="120" height="60" as="geometry"/>
                </mxCell>
                <mxCell id="ofWiquQbu_0ARYprlp63-455" value="홈 화면에 연결" style="whiteSpace=wrap;rounded=1;fillColor=#999999;strokeColor=none;shadow=1;fontColor=#FFFFFF;fontStyle=0" parent="1" vertex="1">
                    <mxGeometry x="1549.9999999999995" y="440.0000000000002" width="120" height="60" as="geometry"/>
                </mxCell>
                <mxCell id="ofWiquQbu_0ARYprlp63-459" value="" style="edgeStyle=elbowEdgeStyle;elbow=horizontal;rounded=0;fontColor=#000000;endArrow=none;endFill=0;strokeWidth=8;strokeColor=#23445D;" parent="1" source="ofWiquQbu_0ARYprlp63-453" target="ofWiquQbu_0ARYprlp63-454" edge="1">
                    <mxGeometry width="100" height="100" relative="1" as="geometry">
                        <mxPoint x="1520" y="290.00000000000057" as="sourcePoint"/>
                        <mxPoint x="1529.9999999999995" y="390.0000000000001" as="targetPoint"/>
                        <Array as="points">
                            <mxPoint x="1530" y="340.0000000000001"/>
                        </Array>
                    </mxGeometry>
                </mxCell>
                <mxCell id="ofWiquQbu_0ARYprlp63-460" value="" style="edgeStyle=elbowEdgeStyle;elbow=horizontal;rounded=0;fontColor=#000000;endArrow=none;endFill=0;strokeWidth=8;strokeColor=#23445D;" parent="1" source="ofWiquQbu_0ARYprlp63-453" target="ofWiquQbu_0ARYprlp63-455" edge="1">
                    <mxGeometry width="100" height="100" relative="1" as="geometry">
                        <mxPoint x="1530" y="290.0000000000001" as="sourcePoint"/>
                        <mxPoint x="1529.9999999999998" y="470.0000000000001" as="targetPoint"/>
                        <Array as="points">
                            <mxPoint x="1530" y="380.0000000000001"/>
                        </Array>
                    </mxGeometry>
                </mxCell>
                <mxCell id="ofWiquQbu_0ARYprlp63-486" value="SDS 작성" style="whiteSpace=wrap;rounded=1;fillColor=#12AAB5;strokeColor=none;shadow=1;fontColor=#FFFFFF;" parent="1" vertex="1">
                    <mxGeometry x="1709.9999999999998" y="260.0000000000002" width="120" height="60" as="geometry"/>
                </mxCell>
                <mxCell id="ofWiquQbu_0ARYprlp63-487" value="요구사항" style="whiteSpace=wrap;rounded=1;fillColor=#999999;strokeColor=none;shadow=1;fontColor=#FFFFFF;fontStyle=0" parent="1" vertex="1">
                    <mxGeometry x="1709.9999999999993" y="360.0000000000002" width="120" height="60" as="geometry"/>
                </mxCell>
                <mxCell id="ofWiquQbu_0ARYprlp63-488" value="기술 아키택쳐" style="whiteSpace=wrap;rounded=1;fillColor=#999999;strokeColor=none;shadow=1;fontColor=#FFFFFF;fontStyle=0" parent="1" vertex="1">
                    <mxGeometry x="1709.9999999999995" y="440.0000000000002" width="120" height="60" as="geometry"/>
                </mxCell>
                <mxCell id="ofWiquQbu_0ARYprlp63-489" value="시스템 환경" style="whiteSpace=wrap;rounded=1;fillColor=#999999;strokeColor=none;shadow=1;fontColor=#FFFFFF;fontStyle=0" parent="1" vertex="1">
                    <mxGeometry x="1709.9999999999995" y="520.0000000000002" width="120" height="60" as="geometry"/>
                </mxCell>
                <mxCell id="ofWiquQbu_0ARYprlp63-490" value="화면 설계" style="whiteSpace=wrap;rounded=1;fillColor=#999999;strokeColor=none;shadow=1;fontColor=#FFFFFF;fontStyle=0" parent="1" vertex="1">
                    <mxGeometry x="1709.9999999999995" y="600.0000000000002" width="120" height="60" as="geometry"/>
                </mxCell>
                <mxCell id="ofWiquQbu_0ARYprlp63-491" value="실행 및 테스트&#10;유지보수" style="whiteSpace=wrap;rounded=1;fillColor=#999999;strokeColor=none;shadow=1;fontColor=#FFFFFF;fontStyle=0" parent="1" vertex="1">
                    <mxGeometry x="1709.9999999999998" y="680.0000000000002" width="120" height="60" as="geometry"/>
                </mxCell>
                <mxCell id="ofWiquQbu_0ARYprlp63-492" value="" style="edgeStyle=elbowEdgeStyle;elbow=horizontal;rounded=0;fontColor=#000000;endArrow=none;endFill=0;strokeWidth=8;strokeColor=#23445D;" parent="1" source="ofWiquQbu_0ARYprlp63-486" target="ofWiquQbu_0ARYprlp63-487" edge="1">
                    <mxGeometry width="100" height="100" relative="1" as="geometry">
                        <mxPoint x="1680" y="290.00000000000057" as="sourcePoint"/>
                        <mxPoint x="1689.9999999999995" y="390.0000000000001" as="targetPoint"/>
                        <Array as="points">
                            <mxPoint x="1690" y="340.0000000000001"/>
                        </Array>
                    </mxGeometry>
                </mxCell>
                <mxCell id="ofWiquQbu_0ARYprlp63-493" value="" style="edgeStyle=elbowEdgeStyle;elbow=horizontal;rounded=0;fontColor=#000000;endArrow=none;endFill=0;strokeWidth=8;strokeColor=#23445D;" parent="1" source="ofWiquQbu_0ARYprlp63-486" target="ofWiquQbu_0ARYprlp63-488" edge="1">
                    <mxGeometry width="100" height="100" relative="1" as="geometry">
                        <mxPoint x="1690" y="290.0000000000001" as="sourcePoint"/>
                        <mxPoint x="1689.9999999999998" y="470.0000000000001" as="targetPoint"/>
                        <Array as="points">
                            <mxPoint x="1690" y="380.0000000000001"/>
                        </Array>
                    </mxGeometry>
                </mxCell>
                <mxCell id="ofWiquQbu_0ARYprlp63-494" value="" style="edgeStyle=elbowEdgeStyle;elbow=horizontal;rounded=0;fontColor=#000000;endArrow=none;endFill=0;strokeWidth=8;strokeColor=#23445D;" parent="1" source="ofWiquQbu_0ARYprlp63-486" target="ofWiquQbu_0ARYprlp63-491" edge="1">
                    <mxGeometry width="100" height="100" relative="1" as="geometry">
                        <mxPoint x="1690" y="290.0000000000001" as="sourcePoint"/>
                        <mxPoint x="1690" y="710.0000000000001" as="targetPoint"/>
                        <Array as="points">
                            <mxPoint x="1690" y="500.0000000000001"/>
                        </Array>
                    </mxGeometry>
                </mxCell>
                <mxCell id="ofWiquQbu_0ARYprlp63-495" value="" style="edgeStyle=elbowEdgeStyle;elbow=horizontal;rounded=0;fontColor=#000000;endArrow=none;endFill=0;strokeWidth=8;strokeColor=#23445D;" parent="1" source="ofWiquQbu_0ARYprlp63-486" target="ofWiquQbu_0ARYprlp63-490" edge="1">
                    <mxGeometry width="100" height="100" relative="1" as="geometry">
                        <mxPoint x="1690" y="290.0000000000001" as="sourcePoint"/>
                        <mxPoint x="1690" y="630.0000000000001" as="targetPoint"/>
                        <Array as="points">
                            <mxPoint x="1690" y="460.0000000000001"/>
                        </Array>
                    </mxGeometry>
                </mxCell>
                <mxCell id="ofWiquQbu_0ARYprlp63-496" value="" style="edgeStyle=elbowEdgeStyle;elbow=horizontal;rounded=0;fontColor=#000000;endArrow=none;endFill=0;strokeWidth=8;strokeColor=#23445D;" parent="1" source="ofWiquQbu_0ARYprlp63-486" target="ofWiquQbu_0ARYprlp63-489" edge="1">
                    <mxGeometry width="100" height="100" relative="1" as="geometry">
                        <mxPoint x="1690" y="290.0000000000001" as="sourcePoint"/>
                        <mxPoint x="1689.9999999999998" y="550.0000000000001" as="targetPoint"/>
                        <Array as="points">
                            <mxPoint x="1690" y="430.0000000000001"/>
                        </Array>
                    </mxGeometry>
                </mxCell>
                <mxCell id="ofWiquQbu_0ARYprlp63-497" value="" style="edgeStyle=elbowEdgeStyle;elbow=vertical;rounded=0;fontColor=#000000;endArrow=none;endFill=0;strokeWidth=8;strokeColor=#23445D;entryX=0.5;entryY=0;entryDx=0;entryDy=0;exitX=0.5;exitY=1;exitDx=0;exitDy=0;" parent="1" source="7" target="ofWiquQbu_0ARYprlp63-442" edge="1">
                    <mxGeometry width="100" height="100" relative="1" as="geometry">
                        <mxPoint x="1320" y="200" as="sourcePoint"/>
                        <mxPoint x="1130" y="270" as="targetPoint"/>
                    </mxGeometry>
                </mxCell>
                <mxCell id="ofWiquQbu_0ARYprlp63-498" value="" style="edgeStyle=elbowEdgeStyle;elbow=vertical;rounded=0;fontColor=#000000;endArrow=none;endFill=0;strokeWidth=8;strokeColor=#23445D;entryX=0.436;entryY=-0.047;entryDx=0;entryDy=0;entryPerimeter=0;" parent="1" source="7" target="ofWiquQbu_0ARYprlp63-486" edge="1">
                    <mxGeometry width="100" height="100" relative="1" as="geometry">
                        <mxPoint x="1490" y="160" as="sourcePoint"/>
                        <mxPoint x="1620" y="230" as="targetPoint"/>
                    </mxGeometry>
                </mxCell>
                <mxCell id="ofWiquQbu_0ARYprlp63-499" value="" style="edgeStyle=elbowEdgeStyle;elbow=vertical;rounded=0;fontColor=#000000;endArrow=none;endFill=0;strokeWidth=8;strokeColor=#23445D;entryX=0.5;entryY=0;entryDx=0;entryDy=0;" parent="1" source="7" target="ofWiquQbu_0ARYprlp63-453" edge="1">
                    <mxGeometry width="100" height="100" relative="1" as="geometry">
                        <mxPoint x="1500" y="170" as="sourcePoint"/>
                        <mxPoint x="1630" y="240" as="targetPoint"/>
                    </mxGeometry>
                </mxCell>
                <mxCell id="ofWiquQbu_0ARYprlp63-501" value="동물 시뮬레이션&#10; 테스트" style="whiteSpace=wrap;rounded=1;fillColor=#12AAB5;strokeColor=none;shadow=1;fontColor=#FFFFFF;" parent="1" vertex="1">
                    <mxGeometry x="2240" y="259.9999999999999" width="120" height="60" as="geometry"/>
                </mxCell>
                <mxCell id="ofWiquQbu_0ARYprlp63-502" value="상호작용 체크" style="whiteSpace=wrap;rounded=1;fillColor=#999999;strokeColor=none;shadow=1;fontColor=#FFFFFF;fontStyle=0" parent="1" vertex="1">
                    <mxGeometry x="2239.999999999999" y="359.9999999999999" width="120" height="60" as="geometry"/>
                </mxCell>
                <mxCell id="ofWiquQbu_0ARYprlp63-503" value="스킨 변경 체크" style="whiteSpace=wrap;rounded=1;fillColor=#999999;strokeColor=none;shadow=1;fontColor=#FFFFFF;fontStyle=0" parent="1" vertex="1">
                    <mxGeometry x="2239.9999999999995" y="439.9999999999999" width="120" height="60" as="geometry"/>
                </mxCell>
                <mxCell id="ofWiquQbu_0ARYprlp63-504" value="시작 시스템 체크" style="whiteSpace=wrap;rounded=1;fillColor=#999999;strokeColor=none;shadow=1;fontColor=#FFFFFF;fontStyle=0" parent="1" vertex="1">
                    <mxGeometry x="2239.9999999999995" y="519.9999999999999" width="120" height="60" as="geometry"/>
                </mxCell>
                <mxCell id="ofWiquQbu_0ARYprlp63-507" value="" style="edgeStyle=elbowEdgeStyle;elbow=horizontal;rounded=0;fontColor=#000000;endArrow=none;endFill=0;strokeWidth=8;strokeColor=#23445D;" parent="1" source="ofWiquQbu_0ARYprlp63-501" target="ofWiquQbu_0ARYprlp63-502" edge="1">
                    <mxGeometry width="100" height="100" relative="1" as="geometry">
                        <mxPoint x="2210" y="290.0000000000002" as="sourcePoint"/>
                        <mxPoint x="2219.9999999999995" y="389.9999999999998" as="targetPoint"/>
                        <Array as="points">
                            <mxPoint x="2220" y="339.9999999999998"/>
                        </Array>
                    </mxGeometry>
                </mxCell>
                <mxCell id="ofWiquQbu_0ARYprlp63-508" value="" style="edgeStyle=elbowEdgeStyle;elbow=horizontal;rounded=0;fontColor=#000000;endArrow=none;endFill=0;strokeWidth=8;strokeColor=#23445D;" parent="1" source="ofWiquQbu_0ARYprlp63-501" target="ofWiquQbu_0ARYprlp63-503" edge="1">
                    <mxGeometry width="100" height="100" relative="1" as="geometry">
                        <mxPoint x="2220" y="289.9999999999998" as="sourcePoint"/>
                        <mxPoint x="2220" y="469.9999999999998" as="targetPoint"/>
                        <Array as="points">
                            <mxPoint x="2220" y="379.9999999999998"/>
                        </Array>
                    </mxGeometry>
                </mxCell>
                <mxCell id="ofWiquQbu_0ARYprlp63-511" value="" style="edgeStyle=elbowEdgeStyle;elbow=horizontal;rounded=0;fontColor=#000000;endArrow=none;endFill=0;strokeWidth=8;strokeColor=#23445D;" parent="1" source="ofWiquQbu_0ARYprlp63-501" target="ofWiquQbu_0ARYprlp63-504" edge="1">
                    <mxGeometry width="100" height="100" relative="1" as="geometry">
                        <mxPoint x="2220" y="289.9999999999998" as="sourcePoint"/>
                        <mxPoint x="2220" y="549.9999999999998" as="targetPoint"/>
                        <Array as="points">
                            <mxPoint x="2220" y="429.9999999999998"/>
                        </Array>
                    </mxGeometry>
                </mxCell>
                <mxCell id="ofWiquQbu_0ARYprlp63-512" value="" style="edgeStyle=elbowEdgeStyle;elbow=vertical;rounded=0;fontColor=#000000;endArrow=none;endFill=0;strokeWidth=8;strokeColor=#23445D;entryX=0.5;entryY=0;entryDx=0;entryDy=0;exitX=0.5;exitY=1;exitDx=0;exitDy=0;" parent="1" source="8" target="ofWiquQbu_0ARYprlp63-501" edge="1">
                    <mxGeometry width="100" height="100" relative="1" as="geometry">
                        <mxPoint x="2060" y="200" as="sourcePoint"/>
                        <mxPoint x="2160" y="270" as="targetPoint"/>
                    </mxGeometry>
                </mxCell>
                <mxCell id="ofWiquQbu_0ARYprlp63-547" value="QA" style="whiteSpace=wrap;rounded=1;fillColor=#12AAB5;strokeColor=none;shadow=1;fontColor=#FFFFFF;" parent="1" vertex="1">
                    <mxGeometry x="2430" y="259.9999999999997" width="120" height="60" as="geometry"/>
                </mxCell>
                <mxCell id="ofWiquQbu_0ARYprlp63-548" value="WORK&#10;PACKAGE 1" style="whiteSpace=wrap;rounded=1;fillColor=#999999;strokeColor=none;shadow=1;fontColor=#FFFFFF;fontStyle=0" parent="1" vertex="1">
                    <mxGeometry x="2430" y="359.9999999999997" width="120" height="60" as="geometry"/>
                </mxCell>
                <mxCell id="ofWiquQbu_0ARYprlp63-549" value="WORK&#10;PACKAGE 2" style="whiteSpace=wrap;rounded=1;fillColor=#999999;strokeColor=none;shadow=1;fontColor=#FFFFFF;fontStyle=0" parent="1" vertex="1">
                    <mxGeometry x="2430" y="439.9999999999997" width="120" height="60" as="geometry"/>
                </mxCell>
                <mxCell id="ofWiquQbu_0ARYprlp63-550" value="WORK&#10;PACKAGE 3" style="whiteSpace=wrap;rounded=1;fillColor=#999999;strokeColor=none;shadow=1;fontColor=#FFFFFF;fontStyle=0" parent="1" vertex="1">
                    <mxGeometry x="2430" y="519.9999999999997" width="120" height="60" as="geometry"/>
                </mxCell>
                <mxCell id="ofWiquQbu_0ARYprlp63-551" value="WORK&#10;PACKAGE 4" style="whiteSpace=wrap;rounded=1;fillColor=#999999;strokeColor=none;shadow=1;fontColor=#FFFFFF;fontStyle=0" parent="1" vertex="1">
                    <mxGeometry x="2430" y="599.9999999999997" width="120" height="60" as="geometry"/>
                </mxCell>
                <mxCell id="ofWiquQbu_0ARYprlp63-552" value="WORK&#10;PACKAGE 5" style="whiteSpace=wrap;rounded=1;fillColor=#999999;strokeColor=none;shadow=1;fontColor=#FFFFFF;fontStyle=0" parent="1" vertex="1">
                    <mxGeometry x="2430" y="679.9999999999997" width="120" height="60" as="geometry"/>
                </mxCell>
                <mxCell id="ofWiquQbu_0ARYprlp63-553" value="" style="edgeStyle=elbowEdgeStyle;elbow=horizontal;rounded=0;fontColor=#000000;endArrow=none;endFill=0;strokeWidth=8;strokeColor=#23445D;" parent="1" source="ofWiquQbu_0ARYprlp63-547" target="ofWiquQbu_0ARYprlp63-548" edge="1">
                    <mxGeometry width="100" height="100" relative="1" as="geometry">
                        <mxPoint x="2410" y="290.00000000000006" as="sourcePoint"/>
                        <mxPoint x="2419.9999999999995" y="389.9999999999996" as="targetPoint"/>
                        <Array as="points">
                            <mxPoint x="2410" y="339.9999999999996"/>
                        </Array>
                    </mxGeometry>
                </mxCell>
                <mxCell id="ofWiquQbu_0ARYprlp63-554" value="" style="edgeStyle=elbowEdgeStyle;elbow=horizontal;rounded=0;fontColor=#000000;endArrow=none;endFill=0;strokeWidth=8;strokeColor=#23445D;" parent="1" source="ofWiquQbu_0ARYprlp63-547" target="ofWiquQbu_0ARYprlp63-549" edge="1">
                    <mxGeometry width="100" height="100" relative="1" as="geometry">
                        <mxPoint x="2420" y="289.9999999999996" as="sourcePoint"/>
                        <mxPoint x="2420" y="469.99999999999955" as="targetPoint"/>
                        <Array as="points">
                            <mxPoint x="2410" y="379.9999999999996"/>
                        </Array>
                    </mxGeometry>
                </mxCell>
                <mxCell id="ofWiquQbu_0ARYprlp63-555" value="" style="edgeStyle=elbowEdgeStyle;elbow=horizontal;rounded=0;fontColor=#000000;endArrow=none;endFill=0;strokeWidth=8;strokeColor=#23445D;" parent="1" source="ofWiquQbu_0ARYprlp63-547" target="ofWiquQbu_0ARYprlp63-552" edge="1">
                    <mxGeometry width="100" height="100" relative="1" as="geometry">
                        <mxPoint x="2420" y="289.9999999999996" as="sourcePoint"/>
                        <mxPoint x="2420" y="709.9999999999995" as="targetPoint"/>
                        <Array as="points">
                            <mxPoint x="2410" y="509.99999999999955"/>
                        </Array>
                    </mxGeometry>
                </mxCell>
                <mxCell id="ofWiquQbu_0ARYprlp63-556" value="" style="edgeStyle=elbowEdgeStyle;elbow=horizontal;rounded=0;fontColor=#000000;endArrow=none;endFill=0;strokeWidth=8;strokeColor=#23445D;" parent="1" source="ofWiquQbu_0ARYprlp63-547" target="ofWiquQbu_0ARYprlp63-551" edge="1">
                    <mxGeometry width="100" height="100" relative="1" as="geometry">
                        <mxPoint x="2420" y="289.9999999999996" as="sourcePoint"/>
                        <mxPoint x="2420" y="629.9999999999995" as="targetPoint"/>
                        <Array as="points">
                            <mxPoint x="2410" y="459.99999999999955"/>
                        </Array>
                    </mxGeometry>
                </mxCell>
                <mxCell id="ofWiquQbu_0ARYprlp63-557" value="" style="edgeStyle=elbowEdgeStyle;elbow=horizontal;rounded=0;fontColor=#000000;endArrow=none;endFill=0;strokeWidth=8;strokeColor=#23445D;" parent="1" source="ofWiquQbu_0ARYprlp63-547" target="ofWiquQbu_0ARYprlp63-550" edge="1">
                    <mxGeometry width="100" height="100" relative="1" as="geometry">
                        <mxPoint x="2420" y="289.9999999999996" as="sourcePoint"/>
                        <mxPoint x="2420" y="549.9999999999995" as="targetPoint"/>
                        <Array as="points">
                            <mxPoint x="2410" y="429.9999999999996"/>
                        </Array>
                    </mxGeometry>
                </mxCell>
                <mxCell id="ofWiquQbu_0ARYprlp63-558" value="" style="edgeStyle=elbowEdgeStyle;elbow=vertical;rounded=0;fontColor=#000000;endArrow=none;endFill=0;strokeWidth=8;strokeColor=#23445D;entryX=0.5;entryY=0;entryDx=0;entryDy=0;" parent="1" source="5" target="ofWiquQbu_0ARYprlp63-547" edge="1">
                    <mxGeometry width="100" height="100" relative="1" as="geometry">
                        <mxPoint x="3020" y="200" as="sourcePoint"/>
                        <mxPoint x="2920" y="270" as="targetPoint"/>
                    </mxGeometry>
                </mxCell>
                <mxCell id="ofWiquQbu_0ARYprlp63-559" value="유지보수" style="whiteSpace=wrap;rounded=1;fillColor=#12AAB5;strokeColor=none;shadow=1;fontColor=#FFFFFF;" parent="1" vertex="1">
                    <mxGeometry x="2620" y="259.9999999999997" width="120" height="60" as="geometry"/>
                </mxCell>
                <mxCell id="ofWiquQbu_0ARYprlp63-560" value="WORK&#10;PACKAGE 1" style="whiteSpace=wrap;rounded=1;fillColor=#999999;strokeColor=none;shadow=1;fontColor=#FFFFFF;fontStyle=0" parent="1" vertex="1">
                    <mxGeometry x="2620" y="359.9999999999997" width="120" height="60" as="geometry"/>
                </mxCell>
                <mxCell id="ofWiquQbu_0ARYprlp63-561" value="WORK&#10;PACKAGE 2" style="whiteSpace=wrap;rounded=1;fillColor=#999999;strokeColor=none;shadow=1;fontColor=#FFFFFF;fontStyle=0" parent="1" vertex="1">
                    <mxGeometry x="2620" y="439.9999999999997" width="120" height="60" as="geometry"/>
                </mxCell>
                <mxCell id="ofWiquQbu_0ARYprlp63-562" value="WORK&#10;PACKAGE 3" style="whiteSpace=wrap;rounded=1;fillColor=#999999;strokeColor=none;shadow=1;fontColor=#FFFFFF;fontStyle=0" parent="1" vertex="1">
                    <mxGeometry x="2620" y="519.9999999999997" width="120" height="60" as="geometry"/>
                </mxCell>
                <mxCell id="ofWiquQbu_0ARYprlp63-563" value="WORK&#10;PACKAGE 4" style="whiteSpace=wrap;rounded=1;fillColor=#999999;strokeColor=none;shadow=1;fontColor=#FFFFFF;fontStyle=0" parent="1" vertex="1">
                    <mxGeometry x="2620" y="599.9999999999997" width="120" height="60" as="geometry"/>
                </mxCell>
                <mxCell id="ofWiquQbu_0ARYprlp63-564" value="WORK&#10;PACKAGE 5" style="whiteSpace=wrap;rounded=1;fillColor=#999999;strokeColor=none;shadow=1;fontColor=#FFFFFF;fontStyle=0" parent="1" vertex="1">
                    <mxGeometry x="2620" y="679.9999999999997" width="120" height="60" as="geometry"/>
                </mxCell>
                <mxCell id="ofWiquQbu_0ARYprlp63-565" value="" style="edgeStyle=elbowEdgeStyle;elbow=horizontal;rounded=0;fontColor=#000000;endArrow=none;endFill=0;strokeWidth=8;strokeColor=#23445D;" parent="1" source="ofWiquQbu_0ARYprlp63-559" target="ofWiquQbu_0ARYprlp63-560" edge="1">
                    <mxGeometry width="100" height="100" relative="1" as="geometry">
                        <mxPoint x="2600" y="290.00000000000006" as="sourcePoint"/>
                        <mxPoint x="2609.9999999999995" y="389.9999999999996" as="targetPoint"/>
                        <Array as="points">
                            <mxPoint x="2600" y="339.9999999999996"/>
                        </Array>
                    </mxGeometry>
                </mxCell>
                <mxCell id="ofWiquQbu_0ARYprlp63-566" value="" style="edgeStyle=elbowEdgeStyle;elbow=horizontal;rounded=0;fontColor=#000000;endArrow=none;endFill=0;strokeWidth=8;strokeColor=#23445D;" parent="1" source="ofWiquQbu_0ARYprlp63-559" target="ofWiquQbu_0ARYprlp63-561" edge="1">
                    <mxGeometry width="100" height="100" relative="1" as="geometry">
                        <mxPoint x="2610" y="289.9999999999996" as="sourcePoint"/>
                        <mxPoint x="2610" y="469.99999999999955" as="targetPoint"/>
                        <Array as="points">
                            <mxPoint x="2600" y="379.9999999999996"/>
                        </Array>
                    </mxGeometry>
                </mxCell>
                <mxCell id="ofWiquQbu_0ARYprlp63-567" value="" style="edgeStyle=elbowEdgeStyle;elbow=horizontal;rounded=0;fontColor=#000000;endArrow=none;endFill=0;strokeWidth=8;strokeColor=#23445D;" parent="1" source="ofWiquQbu_0ARYprlp63-559" target="ofWiquQbu_0ARYprlp63-564" edge="1">
                    <mxGeometry width="100" height="100" relative="1" as="geometry">
                        <mxPoint x="2610" y="289.9999999999996" as="sourcePoint"/>
                        <mxPoint x="2610" y="709.9999999999995" as="targetPoint"/>
                        <Array as="points">
                            <mxPoint x="2600" y="509.99999999999955"/>
                        </Array>
                    </mxGeometry>
                </mxCell>
                <mxCell id="ofWiquQbu_0ARYprlp63-568" value="" style="edgeStyle=elbowEdgeStyle;elbow=horizontal;rounded=0;fontColor=#000000;endArrow=none;endFill=0;strokeWidth=8;strokeColor=#23445D;" parent="1" source="ofWiquQbu_0ARYprlp63-559" target="ofWiquQbu_0ARYprlp63-563" edge="1">
                    <mxGeometry width="100" height="100" relative="1" as="geometry">
                        <mxPoint x="2610" y="289.9999999999996" as="sourcePoint"/>
                        <mxPoint x="2610" y="629.9999999999995" as="targetPoint"/>
                        <Array as="points">
                            <mxPoint x="2600" y="459.9999999999996"/>
                        </Array>
                    </mxGeometry>
                </mxCell>
                <mxCell id="ofWiquQbu_0ARYprlp63-569" value="" style="edgeStyle=elbowEdgeStyle;elbow=horizontal;rounded=0;fontColor=#000000;endArrow=none;endFill=0;strokeWidth=8;strokeColor=#23445D;" parent="1" source="ofWiquQbu_0ARYprlp63-559" target="ofWiquQbu_0ARYprlp63-562" edge="1">
                    <mxGeometry width="100" height="100" relative="1" as="geometry">
                        <mxPoint x="2610" y="289.9999999999996" as="sourcePoint"/>
                        <mxPoint x="2610" y="549.9999999999995" as="targetPoint"/>
                        <Array as="points">
                            <mxPoint x="2600" y="429.9999999999996"/>
                        </Array>
                    </mxGeometry>
                </mxCell>
                <mxCell id="ofWiquQbu_0ARYprlp63-570" value="저장 시스템" style="whiteSpace=wrap;rounded=1;fillColor=#12AAB5;strokeColor=none;shadow=1;fontColor=#FFFFFF;" parent="1" vertex="1">
                    <mxGeometry x="3140" y="259.9999999999997" width="120" height="60" as="geometry"/>
                </mxCell>
                <mxCell id="ofWiquQbu_0ARYprlp63-571" value="WORK&#10;PACKAGE 1" style="whiteSpace=wrap;rounded=1;fillColor=#999999;strokeColor=none;shadow=1;fontColor=#FFFFFF;fontStyle=0" parent="1" vertex="1">
                    <mxGeometry x="3139.999999999999" y="359.9999999999997" width="120" height="60" as="geometry"/>
                </mxCell>
                <mxCell id="ofWiquQbu_0ARYprlp63-572" value="WORK&#10;PACKAGE 2" style="whiteSpace=wrap;rounded=1;fillColor=#999999;strokeColor=none;shadow=1;fontColor=#FFFFFF;fontStyle=0" parent="1" vertex="1">
                    <mxGeometry x="3139.9999999999995" y="439.9999999999997" width="120" height="60" as="geometry"/>
                </mxCell>
                <mxCell id="ofWiquQbu_0ARYprlp63-573" value="WORK&#10;PACKAGE 3" style="whiteSpace=wrap;rounded=1;fillColor=#999999;strokeColor=none;shadow=1;fontColor=#FFFFFF;fontStyle=0" parent="1" vertex="1">
                    <mxGeometry x="3139.9999999999995" y="519.9999999999997" width="120" height="60" as="geometry"/>
                </mxCell>
                <mxCell id="ofWiquQbu_0ARYprlp63-574" value="WORK&#10;PACKAGE 4" style="whiteSpace=wrap;rounded=1;fillColor=#999999;strokeColor=none;shadow=1;fontColor=#FFFFFF;fontStyle=0" parent="1" vertex="1">
                    <mxGeometry x="3139.9999999999995" y="599.9999999999997" width="120" height="60" as="geometry"/>
                </mxCell>
                <mxCell id="ofWiquQbu_0ARYprlp63-575" value="WORK&#10;PACKAGE 5" style="whiteSpace=wrap;rounded=1;fillColor=#999999;strokeColor=none;shadow=1;fontColor=#FFFFFF;fontStyle=0" parent="1" vertex="1">
                    <mxGeometry x="3140" y="679.9999999999997" width="120" height="60" as="geometry"/>
                </mxCell>
                <mxCell id="ofWiquQbu_0ARYprlp63-576" value="" style="edgeStyle=elbowEdgeStyle;elbow=horizontal;rounded=0;fontColor=#000000;endArrow=none;endFill=0;strokeWidth=8;strokeColor=#23445D;" parent="1" source="ofWiquQbu_0ARYprlp63-570" target="ofWiquQbu_0ARYprlp63-571" edge="1">
                    <mxGeometry width="100" height="100" relative="1" as="geometry">
                        <mxPoint x="3110" y="290.00000000000006" as="sourcePoint"/>
                        <mxPoint x="3119.9999999999995" y="389.9999999999996" as="targetPoint"/>
                        <Array as="points">
                            <mxPoint x="3120" y="339.9999999999996"/>
                        </Array>
                    </mxGeometry>
                </mxCell>
                <mxCell id="ofWiquQbu_0ARYprlp63-577" value="" style="edgeStyle=elbowEdgeStyle;elbow=horizontal;rounded=0;fontColor=#000000;endArrow=none;endFill=0;strokeWidth=8;strokeColor=#23445D;" parent="1" source="ofWiquQbu_0ARYprlp63-570" target="ofWiquQbu_0ARYprlp63-572" edge="1">
                    <mxGeometry width="100" height="100" relative="1" as="geometry">
                        <mxPoint x="3120" y="289.9999999999996" as="sourcePoint"/>
                        <mxPoint x="3120" y="469.99999999999955" as="targetPoint"/>
                        <Array as="points">
                            <mxPoint x="3120" y="379.9999999999996"/>
                        </Array>
                    </mxGeometry>
                </mxCell>
                <mxCell id="ofWiquQbu_0ARYprlp63-578" value="" style="edgeStyle=elbowEdgeStyle;elbow=horizontal;rounded=0;fontColor=#000000;endArrow=none;endFill=0;strokeWidth=8;strokeColor=#23445D;" parent="1" source="ofWiquQbu_0ARYprlp63-570" target="ofWiquQbu_0ARYprlp63-575" edge="1">
                    <mxGeometry width="100" height="100" relative="1" as="geometry">
                        <mxPoint x="3120" y="289.9999999999996" as="sourcePoint"/>
                        <mxPoint x="3120" y="709.9999999999995" as="targetPoint"/>
                        <Array as="points">
                            <mxPoint x="3120" y="499.99999999999955"/>
                        </Array>
                    </mxGeometry>
                </mxCell>
                <mxCell id="ofWiquQbu_0ARYprlp63-579" value="" style="edgeStyle=elbowEdgeStyle;elbow=horizontal;rounded=0;fontColor=#000000;endArrow=none;endFill=0;strokeWidth=8;strokeColor=#23445D;" parent="1" source="ofWiquQbu_0ARYprlp63-570" target="ofWiquQbu_0ARYprlp63-574" edge="1">
                    <mxGeometry width="100" height="100" relative="1" as="geometry">
                        <mxPoint x="3120" y="289.9999999999996" as="sourcePoint"/>
                        <mxPoint x="3120" y="629.9999999999995" as="targetPoint"/>
                        <Array as="points">
                            <mxPoint x="3120" y="459.9999999999996"/>
                        </Array>
                    </mxGeometry>
                </mxCell>
                <mxCell id="ofWiquQbu_0ARYprlp63-580" value="" style="edgeStyle=elbowEdgeStyle;elbow=horizontal;rounded=0;fontColor=#000000;endArrow=none;endFill=0;strokeWidth=8;strokeColor=#23445D;" parent="1" source="ofWiquQbu_0ARYprlp63-570" target="ofWiquQbu_0ARYprlp63-573" edge="1">
                    <mxGeometry width="100" height="100" relative="1" as="geometry">
                        <mxPoint x="3120" y="289.9999999999996" as="sourcePoint"/>
                        <mxPoint x="3120" y="549.9999999999995" as="targetPoint"/>
                        <Array as="points">
                            <mxPoint x="3120" y="429.9999999999996"/>
                        </Array>
                    </mxGeometry>
                </mxCell>
                <mxCell id="ofWiquQbu_0ARYprlp63-581" value="" style="edgeStyle=elbowEdgeStyle;elbow=vertical;rounded=0;fontColor=#000000;endArrow=none;endFill=0;strokeWidth=8;strokeColor=#23445D;entryX=0.5;entryY=0;entryDx=0;entryDy=0;" parent="1" source="5" target="ofWiquQbu_0ARYprlp63-570" edge="1">
                    <mxGeometry width="100" height="100" relative="1" as="geometry">
                        <mxPoint x="3020" y="200" as="sourcePoint"/>
                        <mxPoint x="3040" y="270" as="targetPoint"/>
                    </mxGeometry>
                </mxCell>
                <mxCell id="ofWiquQbu_0ARYprlp63-582" value="외부 인터페이스&#10;요구사항" style="whiteSpace=wrap;rounded=1;fillColor=#999999;strokeColor=none;shadow=1;fontColor=#FFFFFF;fontStyle=0" parent="1" vertex="1">
                    <mxGeometry x="-510.0000000000002" y="760.0000000000001" width="120" height="60" as="geometry"/>
                </mxCell>
                <mxCell id="ofWiquQbu_0ARYprlp63-583" value="" style="edgeStyle=elbowEdgeStyle;elbow=horizontal;rounded=0;fontColor=#000000;endArrow=none;endFill=0;strokeWidth=8;strokeColor=#23445D;entryX=0;entryY=0.5;entryDx=0;entryDy=0;exitX=0;exitY=0.5;exitDx=0;exitDy=0;" parent="1" source="44" target="ofWiquQbu_0ARYprlp63-582" edge="1">
                    <mxGeometry width="100" height="100" relative="1" as="geometry">
                        <mxPoint x="-500" y="300" as="sourcePoint"/>
                        <mxPoint x="-500" y="720" as="targetPoint"/>
                        <Array as="points">
                            <mxPoint x="-530" y="540"/>
                        </Array>
                    </mxGeometry>
                </mxCell>
            </root>
        </mxGraphModel>
    </diagram>
</mxfile>